<svg version="1.1" id="Layer_1" xmlns="http://www.w3.org/2000/svg" xmlns:xlink="http://www.w3.org/1999/xlink" x="0px" y="0px"
	 width="100%" viewBox="0 0 512 512" enable-background="new 0 0 512 512" xml:space="preserve">
<path fill="#CBE2FF" opacity="1.000000" stroke="none" 
	d="
M1.000003,289.000000 
	C1.000000,267.645782 1.000000,246.291550 1.356129,224.779572 
	C2.140086,223.781494 2.768778,222.985519 2.965635,222.094193 
	C5.948508,208.587952 8.347437,194.927017 11.943658,181.588242 
	C16.771238,163.682236 24.492939,146.904999 33.615257,130.725128 
	C42.478199,115.005325 52.539715,100.055527 64.849869,87.003120 
	C76.232475,74.934196 88.630440,63.665939 101.537109,53.226879 
	C122.696121,36.113243 146.544632,23.579262 172.403885,14.849343 
	C188.945557,9.264978 205.627243,4.531603 223.085114,2.919574 
	C223.776596,2.855725 224.364059,1.665434 225.000000,0.999999 
	C225.750000,1.000000 226.500000,1.000000 227.585327,1.397682 
	C231.477112,2.903975 234.965881,4.359343 238.600281,5.068580 
	C284.664490,14.057851 325.684998,33.656563 360.880249,64.624588 
	C383.348785,84.394501 402.060730,107.499367 416.481140,133.919632 
	C435.596527,168.941803 445.900696,206.502670 447.765381,246.195816 
	C448.455353,260.883423 447.517822,275.805939 445.697418,290.418854 
	C442.268005,317.947357 434.471283,344.358734 421.598053,369.096527 
	C414.796936,365.679962 408.545349,361.785278 401.781677,359.264862 
	C391.233459,355.334167 380.349915,352.296631 369.584351,348.958344 
	C364.064484,347.246674 358.492401,345.703369 352.677795,343.872559 
	C350.743408,342.575684 349.163940,341.311157 347.392853,340.433136 
	C332.950500,333.273743 318.479248,326.172394 303.992096,319.103943 
	C302.832184,318.538055 301.487640,318.350555 300.143982,318.046936 
	C300.059113,318.106628 299.851776,318.117432 299.877838,317.642120 
	C299.860596,307.425415 299.817261,297.684052 299.904602,287.623871 
	C307.287262,280.306702 315.332153,273.946014 321.598022,266.154572 
	C330.155212,255.513916 334.799652,242.813156 336.091248,229.047226 
	C336.518188,224.496887 337.776672,221.205490 343.514648,220.362183 
	C349.652527,219.460098 352.944275,214.337418 352.996216,208.036148 
	C353.070374,199.045547 352.981598,190.053589 353.018311,180.591034 
	C353.076996,163.290359 353.190369,146.459900 353.047638,129.631607 
	C352.933990,116.235222 343.656342,106.711609 330.392334,105.982765 
	C323.829895,105.622169 321.461182,103.386528 320.867584,96.992958 
	C319.758698,85.048500 312.115051,76.318024 300.474060,74.422272 
	C296.427948,73.763351 292.186554,74.303436 287.566223,74.247261 
	C263.621460,74.188751 240.143768,74.029007 216.668594,74.205429 
	C184.389862,74.447998 161.071350,97.979141 160.948837,130.242294 
	C160.884369,147.224442 160.981003,164.207199 161.003876,181.646454 
	C160.999466,190.590851 160.952377,199.078751 161.006409,207.566010 
	C161.050095,214.429138 164.374115,219.333099 171.161057,220.333176 
	C176.466095,221.114899 177.488159,224.069366 177.948715,228.300888 
	C180.523270,251.955994 191.854538,270.465057 210.790161,284.643311 
	C212.442856,285.880798 213.800705,288.581970 213.884506,290.660187 
	C214.253036,299.799408 214.103302,308.959503 214.035217,318.105530 
	C213.929031,318.099030 213.753510,317.978729 213.346405,318.006226 
	C200.410400,324.075897 187.842972,330.040070 175.371811,336.199219 
	C170.490067,338.610199 165.824402,341.458679 160.668396,344.077087 
	C143.170883,349.433502 125.900581,354.355042 109.002693,360.329773 
	C89.361748,367.274353 76.670403,381.429443 72.579262,401.817566 
	C70.547394,411.943359 71.420036,422.651978 70.659111,432.979797 
	C63.656540,424.839172 56.717052,417.013641 50.341785,408.752655 
	C35.176273,389.101410 23.759794,367.337219 15.545810,343.963379 
	C9.498623,326.755432 4.462597,309.242859 2.918675,290.922180 
	C2.860549,290.232452 1.665336,289.638550 1.000003,289.000000 
z"/>
<path fill="#BED8FB" opacity="1.000000" stroke="none" 
	d="
M421.918030,369.234467 
	C434.471283,344.358734 442.268005,317.947357 445.697418,290.418854 
	C447.517822,275.805939 448.455353,260.883423 447.765381,246.195816 
	C445.900696,206.502670 435.596527,168.941803 416.481140,133.919632 
	C402.060730,107.499367 383.348785,84.394501 360.880249,64.624588 
	C325.684998,33.656563 284.664490,14.057851 238.600281,5.068580 
	C234.965881,4.359343 231.477112,2.903975 227.960327,1.397682 
	C248.020889,1.000000 268.041779,1.000000 288.210632,1.355143 
	C289.197723,2.138670 289.992462,2.772263 290.882629,2.964727 
	C304.751770,5.963486 318.778198,8.359252 332.475983,11.995429 
	C350.425201,16.760197 367.220734,24.490992 383.398224,33.688148 
	C399.096100,42.612644 414.092468,52.623238 427.124725,64.979660 
	C439.405029,76.623100 451.002655,89.175018 461.573608,102.388832 
	C477.574310,122.389786 489.478058,144.904938 498.046448,169.116699 
	C504.253662,186.656540 509.374329,204.444855 511.080963,223.075134 
	C511.144562,223.769531 512.334778,224.360718 513.000000,225.000000 
	C513.000000,246.020889 513.000000,267.041779 512.644165,288.210449 
	C511.860321,289.198456 511.179016,290.000183 511.044586,290.885040 
	C509.973267,297.934875 509.598450,305.146271 507.903748,312.036011 
	C500.550262,341.931549 489.833069,370.436737 472.451477,396.173492 
	C463.599548,409.280365 454.706177,422.287231 443.004639,432.621521 
	C442.984406,425.344421 443.267273,418.525635 442.896790,411.742554 
	C441.975067,394.867310 435.330231,380.727936 421.989380,369.795563 
	C421.955017,369.610046 421.918030,369.234467 421.918030,369.234467 
z"/>
<path fill="#000000" opacity="1.000000" stroke="none" 
	d="
M1.000003,289.468658 
	C1.665336,289.638550 2.860549,290.232452 2.918675,290.922180 
	C4.462597,309.242859 9.498623,326.755432 15.545810,343.963379 
	C23.759794,367.337219 35.176273,389.101410 50.341785,408.752655 
	C56.717052,417.013641 63.656540,424.839172 70.747040,433.302551 
	C81.211517,442.776123 90.842186,452.346436 101.407425,460.740417 
	C130.163162,483.586639 162.896423,498.444611 198.535065,506.896027 
	C207.576599,509.040192 216.848190,510.214264 226.319748,511.949768 
	C226.750290,512.376953 226.875137,512.688477 227.000000,513.000000 
	C151.739960,513.000000 76.479912,513.000000 1.000000,513.000000 
	C1.000000,438.645905 1.000000,364.291626 1.000003,289.468658 
z"/>
<path fill="#000000" opacity="1.000000" stroke="none" 
	d="
M443.010406,433.096130 
	C454.706177,422.287231 463.599548,409.280365 472.451477,396.173492 
	C489.833069,370.436737 500.550262,341.931549 507.903748,312.036011 
	C509.598450,305.146271 509.973267,297.934875 511.044586,290.885040 
	C511.179016,290.000183 511.860321,289.198456 512.644165,288.679108 
	C513.000000,363.593719 513.000000,438.187408 513.000000,513.000000 
	C438.645905,513.000000 364.291626,513.000000 289.374268,512.585999 
	C289.483307,511.789856 290.112854,511.209991 290.833771,511.054901 
	C304.745789,508.062012 318.885803,505.884064 332.543579,502.005493 
	C360.625305,494.030823 386.160278,480.695740 409.588409,463.216766 
	C421.685547,454.191498 433.019440,444.412842 443.010406,433.096130 
z"/>
<path fill="#000000" opacity="1.000000" stroke="none" 
	d="
M224.531342,0.999999 
	C224.364059,1.665434 223.776596,2.855725 223.085114,2.919574 
	C205.627243,4.531603 188.945557,9.264978 172.403885,14.849343 
	C146.544632,23.579262 122.696121,36.113243 101.537109,53.226879 
	C88.630440,63.665939 76.232475,74.934196 64.849869,87.003120 
	C52.539715,100.055527 42.478199,115.005325 33.615257,130.725128 
	C24.492939,146.904999 16.771238,163.682236 11.943658,181.588242 
	C8.347437,194.927017 5.948508,208.587952 2.965635,222.094193 
	C2.768778,222.985519 2.140086,223.781494 1.356129,224.310913 
	C1.000000,149.739456 1.000000,75.478920 1.000000,1.000000 
	C75.354088,1.000000 149.708389,1.000000 224.531342,0.999999 
z"/>
<path fill="#000000" opacity="1.000000" stroke="none" 
	d="
M513.000000,224.531342 
	C512.334778,224.360718 511.144562,223.769531 511.080963,223.075134 
	C509.374329,204.444855 504.253662,186.656540 498.046448,169.116699 
	C489.478058,144.904938 477.574310,122.389786 461.573608,102.388832 
	C451.002655,89.175018 439.405029,76.623100 427.124725,64.979660 
	C414.092468,52.623238 399.096100,42.612644 383.398224,33.688148 
	C367.220734,24.490992 350.425201,16.760197 332.475983,11.995429 
	C318.778198,8.359252 304.751770,5.963486 290.882629,2.964727 
	C289.992462,2.772263 289.197723,2.138670 288.679291,1.355143 
	C363.593719,1.000000 438.187408,1.000000 513.000000,1.000000 
	C513.000000,75.354088 513.000000,149.708389 513.000000,224.531342 
z"/>
<path fill="#407093" opacity="1.000000" stroke="none" 
	d="
M443.004639,432.621521 
	C433.019440,444.412842 421.685547,454.191498 409.588409,463.216766 
	C386.160278,480.695740 360.625305,494.030823 332.543579,502.005493 
	C318.885803,505.884064 304.745789,508.062012 290.833771,511.054901 
	C290.112854,511.209991 289.483307,511.789856 288.905609,512.585999 
	C281.979034,513.000000 274.958099,513.000000 267.505890,512.656311 
	C273.040375,506.202972 279.006104,500.093292 285.207092,494.236298 
	C286.532928,494.367859 287.724152,494.491547 288.699432,494.090302 
	C325.231995,479.059784 356.785217,456.830322 382.932190,427.299500 
	C392.112885,416.930695 400.015594,405.368896 407.905334,393.940033 
	C413.158081,386.331055 417.354553,377.992889 422.023804,369.981079 
	C435.330231,380.727936 441.975067,394.867310 442.896790,411.742554 
	C443.267273,418.525635 442.984406,425.344421 443.004639,432.621521 
z"/>
<path fill="#375F7E" opacity="1.000000" stroke="none" 
	d="
M284.971802,493.983612 
	C279.006104,500.093292 273.040375,506.202972 267.037323,512.656311 
	C265.285645,513.000000 263.571289,513.000000 261.546631,512.671631 
	C262.562378,509.307709 263.888397,506.272125 265.196228,503.196014 
	C265.178009,503.155457 265.090393,503.140350 265.340973,503.054749 
	C265.720642,502.649170 265.849731,502.329254 266.227966,501.766602 
	C272.249786,488.373810 278.022461,475.223785 283.916168,461.710693 
	C294.971161,434.079285 304.046265,406.290100 307.799164,376.556030 
	C308.138458,374.325592 308.430542,372.519714 308.558380,370.702271 
	C309.839294,352.492096 309.386475,334.550110 300.228882,317.987213 
	C301.487640,318.350555 302.832184,318.538055 303.992096,319.103943 
	C318.479248,326.172394 332.950500,333.273743 347.392853,340.433136 
	C349.163940,341.311157 350.743408,342.575684 352.683411,344.296265 
	C352.232239,348.105164 351.946564,351.465179 350.691040,354.412048 
	C348.412903,359.759155 345.466370,364.816956 342.967133,370.075562 
	C340.121429,376.063110 340.887970,380.232697 345.475433,384.989441 
	C347.323608,386.905792 349.339569,388.669983 351.089081,390.669769 
	C354.338776,394.384338 355.996521,398.547058 354.004456,403.495697 
	C352.950500,406.113861 352.061127,408.811829 350.827240,411.341980 
	C339.023712,435.546692 321.163788,455.267151 303.379333,475.011017 
	C297.485992,481.553650 291.121124,487.671539 284.971802,493.983612 
z"/>
<path fill="#375F7E" opacity="1.000000" stroke="none" 
	d="
M161.060303,344.107910 
	C165.824402,341.458679 170.490067,338.610199 175.371811,336.199219 
	C187.842972,330.040070 200.410400,324.075897 213.133545,318.333191 
	C203.674454,337.951080 203.262390,358.261658 206.804871,379.440552 
	C206.883560,381.366211 206.888702,382.872406 207.141052,384.335999 
	C211.765182,411.153687 219.969131,436.912659 230.243317,462.420258 
	C236.857544,477.188263 243.422089,491.607239 250.028931,506.372589 
	C251.047485,508.812653 252.023743,510.906342 253.000000,513.000000 
	C251.285645,513.000000 249.571289,513.000000 247.395660,512.665527 
	C245.619339,510.887329 244.304306,509.443665 242.844818,507.701050 
	C226.856247,490.824554 210.735428,474.500244 195.257065,457.587982 
	C183.244934,444.463104 172.648178,430.151031 164.594696,414.173279 
	C157.350800,399.801666 156.083801,396.241516 168.701416,384.707367 
	C173.370850,380.438873 173.848404,376.079681 171.099838,370.235199 
	C168.693115,365.117584 165.751648,360.232208 163.625916,355.008453 
	C162.235870,351.592560 161.879608,347.756042 161.060303,344.107910 
z"/>
<path fill="#D7636F" opacity="1.000000" stroke="none" 
	d="
M253.444153,513.000000 
	C252.023743,510.906342 251.047485,508.812653 250.435089,506.363281 
	C255.604111,505.083923 260.409271,504.160248 265.214417,503.236572 
	C263.888397,506.272125 262.562378,509.307709 261.118164,512.671631 
	C258.629456,513.000000 256.258881,513.000000 253.444153,513.000000 
z"/>
<path fill="#417396" opacity="1.000000" stroke="none" 
	d="
M242.989288,508.000000 
	C244.304306,509.443665 245.619339,510.887329 246.967194,512.665527 
	C240.645599,513.000000 234.291214,513.000000 227.468414,513.000000 
	C226.875137,512.688477 226.750290,512.376953 226.537048,511.645142 
	C231.962204,510.149902 237.475754,509.074951 242.989288,508.000000 
z"/>
<path fill="#FFDDCE" opacity="1.000000" stroke="none" 
	d="
M299.773926,287.942657 
	C299.817261,297.684052 299.860596,307.425415 299.587463,317.760498 
	C297.304352,320.372559 295.215820,322.287018 293.391144,324.426453 
	C282.758179,336.893768 272.155609,349.387512 261.638489,361.952393 
	C260.443787,363.379730 259.846313,365.306915 258.640259,366.986847 
	C257.866272,366.946014 257.423920,366.920654 256.940186,366.553741 
	C255.595139,364.317596 254.454239,362.282043 252.957581,360.554657 
	C248.299835,355.178833 243.566849,349.865051 238.753647,344.627747 
	C230.593597,335.748718 222.349945,326.946503 214.141418,318.112030 
	C214.103302,308.959503 214.253036,299.799408 213.884506,290.660187 
	C213.800705,288.581970 212.442856,285.880798 210.790161,284.643311 
	C191.854538,270.465057 180.523270,251.955994 177.948715,228.300888 
	C177.488159,224.069366 176.466095,221.114899 171.161057,220.333176 
	C164.374115,219.333099 161.050095,214.429138 161.006409,207.566010 
	C160.952377,199.078751 160.999466,190.590851 161.470230,181.666016 
	C167.268967,181.215408 172.606033,181.353516 177.930359,181.153015 
	C185.829529,180.855545 191.863876,175.781357 193.257339,167.953568 
	C193.920975,164.225479 193.721970,160.333908 193.804016,156.514038 
	C194.077408,143.783142 204.422501,135.584732 216.533707,139.398148 
	C240.167664,146.839706 263.912231,147.683960 287.984497,142.663269 
	C287.992798,161.784668 288.119293,180.452255 287.959320,199.117386 
	C287.841095,212.914230 287.955017,226.755676 286.870422,240.490784 
	C285.529907,257.467041 278.128326,272.079254 266.196198,284.186096 
	C261.155731,289.300385 255.453766,293.762756 250.065552,298.509918 
	C261.893524,300.334015 278.510620,297.617340 289.719452,292.168640 
	C292.984222,290.581573 296.417755,289.341675 299.773926,287.942657 
z"/>
<path fill="#4A80AA" opacity="1.000000" stroke="none" 
	d="
M242.844818,507.701050 
	C237.475754,509.074951 231.962204,510.149902 226.231354,511.529480 
	C216.848190,510.214264 207.576599,509.040192 198.535065,506.896027 
	C162.896423,498.444611 130.163162,483.586639 101.407425,460.740417 
	C90.842186,452.346436 81.211517,442.776123 71.066620,433.419678 
	C71.420036,422.651978 70.547394,411.943359 72.579262,401.817566 
	C76.670403,381.429443 89.361748,367.274353 109.002693,360.329773 
	C125.900581,354.355042 143.170883,349.433502 160.668411,344.077087 
	C161.879608,347.756042 162.235870,351.592560 163.625916,355.008453 
	C165.751648,360.232208 168.693115,365.117584 171.099838,370.235199 
	C173.848404,376.079681 173.370850,380.438873 168.701416,384.707367 
	C156.083801,396.241516 157.350800,399.801666 164.594696,414.173279 
	C172.648178,430.151031 183.244934,444.463104 195.257065,457.587982 
	C210.735428,474.500244 226.856247,490.824554 242.844818,507.701050 
z"/>
<path fill="#375F7E" opacity="1.000000" stroke="none" 
	d="
M287.979767,142.208405 
	C263.912231,147.683960 240.167664,146.839706 216.533707,139.398148 
	C204.422501,135.584732 194.077408,143.783142 193.804016,156.514038 
	C193.721970,160.333908 193.920975,164.225479 193.257339,167.953568 
	C191.863876,175.781357 185.829529,180.855545 177.930359,181.153015 
	C172.606033,181.353516 167.268967,181.215408 161.471237,181.209229 
	C160.981003,164.207199 160.884369,147.224442 160.948837,130.242294 
	C161.071350,97.979141 184.389862,74.447998 216.668594,74.205429 
	C240.143768,74.029007 263.621460,74.188751 287.561646,74.696274 
	C288.016144,95.496574 287.976807,115.799324 288.052826,136.101654 
	C288.059204,137.802872 288.841797,139.501190 289.103333,141.427567 
	C288.621857,141.838974 288.300812,142.023682 287.979767,142.208405 
z"/>
<path fill="#FFCBBE" opacity="1.000000" stroke="none" 
	d="
M287.984497,142.663269 
	C288.300812,142.023682 288.621857,141.838974 289.492004,141.398727 
	C292.917877,140.400452 295.787384,139.628418 298.672607,138.920227 
	C309.323273,136.305954 319.215759,143.353226 320.167908,154.347198 
	C320.511230,158.311737 320.244934,162.334274 320.673309,166.285187 
	C321.651672,175.308945 327.986816,180.938965 337.005768,181.040115 
	C342.324066,181.099777 347.643494,181.058228 352.962433,181.062195 
	C352.981598,190.053589 353.070374,199.045547 352.996216,208.036148 
	C352.944275,214.337418 349.652527,219.460098 343.514648,220.362183 
	C337.776672,221.205490 336.518188,224.496887 336.091248,229.047226 
	C334.799652,242.813156 330.155212,255.513916 321.598022,266.154572 
	C315.332153,273.946014 307.287262,280.306702 299.904602,287.623871 
	C296.417755,289.341675 292.984222,290.581573 289.719452,292.168640 
	C278.510620,297.617340 261.893524,300.334015 250.065552,298.509918 
	C255.453766,293.762756 261.155731,289.300385 266.196198,284.186096 
	C278.128326,272.079254 285.529907,257.467041 286.870422,240.490784 
	C287.955017,226.755676 287.841095,212.914230 287.959320,199.117386 
	C288.119293,180.452255 287.992798,161.784668 287.984497,142.663269 
z"/>
<path fill="#4A80AA" opacity="1.000000" stroke="none" 
	d="
M285.207092,494.236298 
	C291.121124,487.671539 297.485992,481.553650 303.379333,475.011017 
	C321.163788,455.267151 339.023712,435.546692 350.827240,411.341980 
	C352.061127,408.811829 352.950500,406.113861 354.004456,403.495697 
	C355.996521,398.547058 354.338776,394.384338 351.089081,390.669769 
	C349.339569,388.669983 347.323608,386.905792 345.475433,384.989441 
	C340.887970,380.232697 340.121429,376.063110 342.967133,370.075562 
	C345.466370,364.816956 348.412903,359.759155 350.691040,354.412048 
	C351.946564,351.465179 352.232239,348.105164 352.949524,344.507690 
	C358.492401,345.703369 364.064484,347.246674 369.584351,348.958344 
	C380.349915,352.296631 391.233459,355.334167 401.781677,359.264862 
	C408.545349,361.785278 414.796936,365.679962 421.598053,369.096527 
	C421.918030,369.234467 421.955017,369.610046 421.989410,369.795563 
	C417.354553,377.992889 413.158081,386.331055 407.905334,393.940033 
	C400.015594,405.368896 392.112885,416.930695 382.932190,427.299500 
	C356.785217,456.830322 325.231995,479.059784 288.699432,494.090302 
	C287.724152,494.491547 286.532928,494.367859 285.207092,494.236298 
z"/>
<path fill="#2C4E67" opacity="1.000000" stroke="none" 
	d="
M353.018311,180.591034 
	C347.643494,181.058228 342.324066,181.099777 337.005768,181.040115 
	C327.986816,180.938965 321.651672,175.308945 320.673309,166.285187 
	C320.244934,162.334274 320.511230,158.311737 320.167908,154.347198 
	C319.215759,143.353226 309.323273,136.305954 298.672607,138.920227 
	C295.787384,139.628418 292.917877,140.400452 289.652466,141.172028 
	C288.841797,139.501190 288.059204,137.802872 288.052826,136.101654 
	C287.976807,115.799324 288.016144,95.496574 288.029816,74.744919 
	C292.186554,74.303436 296.427948,73.763351 300.474060,74.422272 
	C312.115051,76.318024 319.758698,85.048500 320.867584,96.992958 
	C321.461182,103.386528 323.829895,105.622169 330.392334,105.982765 
	C343.656342,106.711609 352.933990,116.235222 353.047638,129.631607 
	C353.190369,146.459900 353.076996,163.290359 353.018311,180.591034 
z"/>
<path fill="#F3FAFE" opacity="1.000000" stroke="none" 
	d="
M214.035217,318.105530 
	C222.349945,326.946503 230.593597,335.748718 238.753647,344.627747 
	C243.566849,349.865051 248.299835,355.178833 252.957581,360.554657 
	C254.454239,362.282043 255.595139,364.317596 256.702423,366.793457 
	C249.680222,373.111542 242.814590,378.802216 236.061020,384.622894 
	C234.651703,385.837585 233.656357,387.532593 232.108154,389.019653 
	C221.547501,392.649628 218.100372,391.486542 211.208679,382.490997 
	C210.109299,381.056000 208.317886,380.151184 206.846390,379.001282 
	C203.262390,358.261658 203.674454,337.951080 213.540649,318.305695 
	C213.753510,317.978729 213.929031,318.099030 214.035217,318.105530 
z"/>
<path fill="#F3FAFE" opacity="1.000000" stroke="none" 
	d="
M258.971924,367.002289 
	C259.846313,365.306915 260.443787,363.379730 261.638489,361.952393 
	C272.155609,349.387512 282.758179,336.893768 293.391144,324.426453 
	C295.215820,322.287018 297.304352,320.372559 299.561401,318.235809 
	C299.851776,318.117432 300.059113,318.106628 300.143982,318.046936 
	C309.386475,334.550110 309.839294,352.492096 308.558380,370.702271 
	C308.430542,372.519714 308.138458,374.325592 307.491302,376.642212 
	C304.738159,379.876862 302.375671,382.572845 300.105072,385.344086 
	C297.444183,388.591614 294.235748,390.688751 289.885345,389.958618 
	C287.180389,389.504639 284.544952,388.636200 281.837952,387.625366 
	C274.189026,380.532043 266.580475,373.767151 258.971924,367.002289 
z"/>
<path fill="#E18086" opacity="1.000000" stroke="none" 
	d="
M265.196228,503.196045 
	C260.409271,504.160248 255.604111,505.083923 250.392792,506.016907 
	C243.422089,491.607239 236.857544,477.188263 230.474762,462.134460 
	C232.332733,455.084015 234.094788,448.689331 235.667038,442.248383 
	C238.767593,429.546356 241.762939,416.818634 245.284546,404.077942 
	C253.573685,404.067291 261.380096,404.080261 269.153137,404.484192 
	C269.739960,407.614105 270.286133,410.372345 270.992493,413.088898 
	C275.239655,429.422485 279.523590,445.746521 283.795166,462.073761 
	C278.022461,475.223785 272.249786,488.373810 266.017792,501.900208 
	C265.298065,502.507904 265.142059,502.795837 265.090393,503.140350 
	C265.090393,503.140350 265.178009,503.155457 265.196228,503.196045 
z"/>
<path fill="#E3F4FE" opacity="1.000000" stroke="none" 
	d="
M283.916168,461.710693 
	C279.523590,445.746521 275.239655,429.422485 270.992493,413.088898 
	C270.286133,410.372345 269.739960,407.614105 269.423096,404.295227 
	C273.777039,398.461456 277.827667,393.207611 281.878326,387.953796 
	C284.544952,388.636200 287.180389,389.504639 289.885345,389.958618 
	C294.235748,390.688751 297.444183,388.591614 300.105072,385.344086 
	C302.375671,382.572845 304.738159,379.876862 307.367889,377.061401 
	C304.046265,406.290100 294.971161,434.079285 283.916168,461.710693 
z"/>
<path fill="#D7636F" opacity="1.000000" stroke="none" 
	d="
M265.340973,503.054749 
	C265.142059,502.795837 265.298065,502.507904 265.768677,502.142944 
	C265.849731,502.329254 265.720642,502.649170 265.340973,503.054749 
z"/>
<path fill="#E3F4FE" opacity="1.000000" stroke="none" 
	d="
M244.801788,404.101562 
	C241.762939,416.818634 238.767593,429.546356 235.667038,442.248383 
	C234.094788,448.689331 232.332733,455.084015 230.425049,461.785400 
	C219.969131,436.912659 211.765182,411.153687 207.141052,384.335999 
	C206.888702,382.872406 206.883560,381.366211 206.804871,379.440552 
	C208.317886,380.151184 210.109299,381.056000 211.208679,382.490997 
	C218.100372,391.486542 221.547501,392.649628 232.357178,389.276550 
	C236.912781,394.380554 240.857285,399.241058 244.801788,404.101562 
z"/>
<path fill="#DD6570" opacity="1.000000" stroke="none" 
	d="
M245.284531,404.077942 
	C240.857285,399.241058 236.912781,394.380554 232.719238,389.263153 
	C233.656357,387.532593 234.651703,385.837585 236.061020,384.622894 
	C242.814590,378.802216 249.680222,373.111542 256.743835,367.135010 
	C257.423920,366.920654 257.866272,366.946014 258.640259,366.986847 
	C266.580475,373.767151 274.189026,380.532043 281.837952,387.625366 
	C277.827667,393.207611 273.777039,398.461456 269.456482,403.904266 
	C261.380096,404.080261 253.573685,404.067291 245.284531,404.077942 
z"/>
</svg>