<?xml version="1.0" encoding="UTF-8"?>
<svg version="1.1" viewBox="0 0 1600 1600" width="30" height="30" xmlns="http://www.w3.org/2000/svg">
<path transform="translate(0)" d="m0 0h1600v1600h-1600v-1600z" fill="#FBFEFF"/>
<path transform="translate(657,396)" d="m0 0c1.21 2.52 2.11 4.83 2.96 7.48 0.27 0.78 0.54 1.56 0.81 2.36 0.58 1.7 1.15 3.4 1.72 5.1 0.89 2.71 1.81 5.4 2.73 8.1 0.96 2.81 1.92 5.61 2.87 8.42 3.06 9.02 6.24 18 9.46 27 0.86 2.39 1.71 4.78 2.57 7.17 3.28 9.16 6.73 18.3 10.3 27.3 1.35 3.45 2.67 6.91 3.96 10.4 0.33 0.88 0.66 1.76 1 2.67 0.66 1.76 1.31 3.52 1.96 5.29 0.33 0.86 0.65 1.72 0.98 2.6 0.28 0.76 0.56 1.51 0.85 2.29 0.8 2.06 0.8 2.06 2.85 3.87 3.94-0.31 6.32-1.66 9.44-4 35.7-25.8 78-41.5 122-41.3 2.66 0.01 5.32 0 7.98-0.01 46.5-0.04 96.5 18 131 49.3v2l1.88 0.94c1.37 0.68 2.74 1.37 4.12 2.06v2c0.6 0.26 1.2 0.52 1.82 0.79 2.31 1.28 3.48 2.47 5.12 4.52 1.73 2.15 3.48 4.11 5.43 6.06 24.7 24.7 40 58.2 48.6 91.6 0.18 0.7 0.37 1.41 0.56 2.13 4.19 16.2 5.85 32 5.82 48.8-0.01 0.85-0.01 1.7-0.01 2.58-0.03 14.5-1.17 28.4-4.37 42.5-0.18 0.83-0.36 1.67-0.55 2.52-6.05 27-17.3 52-33.4 74.5-0.74 1.04-1.48 2.09-2.24 3.16-5.41 7.44-11.4 14.2-17.8 20.8-0.51 0.54-1.02 1.08-1.55 1.63-7.6 7.97-15.5 14.9-24.4 21.4-1.01 0.75-2.03 1.5-3.07 2.27-21.8 15.7-46.4 25.6-72.3 32.3-1.73 0.46-1.73 0.46-3.5 0.92-11.8 3.06-23 4.89-35.2 5.27-1.31 0.04-2.61 0.08-3.95 0.12-12.7 0.33-25.3-0.38-38-1.87-0.74-0.09-1.49-0.17-2.25-0.26-27.7-3.57-55-15.5-78.8-29.7-1.53-0.9-1.53-0.9-3.09-1.82-3.36-2-6.66-4.02-9.91-6.18v-2c-0.66-0.19-1.32-0.37-2-0.56-4.35-2.09-7.47-5.2-11-8.44-0.98-0.86-1.95-1.72-2.96-2.61-1.01-0.9-2.03-1.8-3.04-2.7-0.95-0.84-1.9-1.69-2.88-2.55-2.12-2.14-2.12-2.14-2.12-4.14-0.57-0.23-1.15-0.46-1.74-0.7-4.32-2.48-6.99-6.85-10-10.7-1.19-1.52-2.41-3.01-3.63-4.49-17-21.2-28.8-46.5-37.8-72-1.96-5.38-4.13-10.7-6.26-16-3.12-7.87-5.9-15.8-8.67-23.8-2.92-8.4-5.91-16.8-8.9-25.2-0.48-1.34-0.48-1.34-0.97-2.71-6.02-16.8-12.2-33.6-18.4-50.4-2.01-5.43-4.02-10.9-6.02-16.3-4.83-13.1-9.66-26.3-14.6-39.4-0.34-0.9-0.67-1.8-1.02-2.73-0.68-1.82-1.36-3.64-2.04-5.47-5.4-14.5-10.8-29-16-43.5-3.68-10.3-7.46-20.5-11.3-30.7-0.93-2.49-1.86-4.98-2.79-7.46-1.39-3.72-2.79-7.44-4.19-11.2-1.31-3.46-2.61-6.93-3.91-10.4-0.6-1.58-0.6-1.58-1.22-3.19-0.35-0.96-0.71-1.93-1.08-2.92-0.32-0.85-0.64-1.69-0.97-2.56-0.55-2.17-0.55-2.17 0.45-5.17 2.38-1.18 2.38-1.18 5.56-2.31 1.2-0.44 2.39-0.87 3.62-1.32 0.64-0.23 1.27-0.45 1.92-0.69 3.02-1.08 6.02-2.23 9.02-3.37 2.96-1.1 5.92-2.21 8.88-3.31 1-0.37 2-0.75 3.03-1.13 12.1-4.53 24.3-9.02 36.6-13.3 7.48-2.6 14.9-5.39 22.3-8.19 7.11-2.67 14.2-5.32 21.4-7.92 0.92-0.34 1.85-0.68 2.8-1.03 0.85-0.31 1.71-0.62 2.59-0.94 0.75-0.27 1.5-0.54 2.27-0.82 6.99-2.36 6.99-2.36 10.1-0.71z" fill="#009CDE"/>
<path transform="translate(834 471)" d="m0 0c2.66 0.01 5.32 0 7.98-0.01 46.5-0.04 96.5 18 131 49.3v2c0.93 0.46 0.93 0.46 1.88 0.94 1.37 0.69 2.75 1.37 4.12 2.06v2c0.6 0.26 1.2 0.52 1.82 0.79 2.31 1.28 3.48 2.47 5.12 4.52 1.73 2.15 3.48 4.11 5.43 6.06 24.7 24.7 40 58.2 48.6 91.6 0.28 1.06 0.28 1.06 0.56 2.13 4.19 16.2 5.85 32 5.82 48.8 0 0.85-0.01 1.7-0.01 2.58-0.03 14.5-1.17 28.4-4.37 42.5-0.18 0.83-0.36 1.67-0.55 2.52-6.05 27-17.3 52-33.4 74.5-0.74 1.04-1.48 2.09-2.24 3.16-5.41 7.45-11.4 14.2-17.8 20.8-0.51 0.54-1.02 1.08-1.55 1.63-7.6 7.97-15.5 14.9-24.4 21.4-1.01 0.75-2.03 1.5-3.07 2.27-12.5 8.96-25.7 16-39.9 21.9-0.96 0.4-1.92 0.8-2.92 1.21-5.12 2.05-5.12 2.05-7.08 2.6l-2-1c0.07-1.3 0.07-1.3 0.14-2.62-0.15-3.68-0.97-6.07-2.41-9.45-0.47-1.14-0.95-2.29-1.44-3.47-0.51-1.18-1.02-2.37-1.54-3.58-3.16-7.46-6.15-14.9-8.64-22.6-2.14-6.38-4.59-12.6-6.99-18.9-1.58-4.12-3.14-8.25-4.71-12.4-0.3-0.8-0.6-1.6-0.91-2.42-2.16-5.69-4.32-11.4-6.44-17.1-0.26-0.7-0.52-1.4-0.78-2.12-1.46-3.97-2.81-7.97-4.11-12-0.31-0.95-0.62-1.91-0.94-2.9-0.59-1.85-1.18-3.69-1.75-5.54-1.51-4.73-3-8.25-6.48-11.9 1.05-0.66 2.1-1.32 3.19-2 0.73-0.46 1.46-0.92 2.21-1.4 1.85-1.14 3.72-2.23 5.6-3.29 17.2-9.92 28-23.8 34.1-42.8 5.1-19.6 1.9-39.1-7.95-56.6-4.31-7.23-9.25-14-16.1-18.9-0.72-0.55-1.43-1.1-2.17-1.67-14.3-10.6-31.7-14.7-49.4-12.9-6.2 0.95-12.3 2.17-18.4 3.53-0.11-1.01-0.22-2.01-0.34-3.05-0.57-3.94-1.79-7.42-3.22-11.1-0.26-0.68-0.53-1.36-0.8-2.07-2.45-6.35-5-12.7-7.54-19-6.34-15.8-12.2-31.8-17.7-47.9-2.51-7.3-5.05-14.6-7.62-21.9-0.4-1.15-0.8-2.3-1.21-3.49-2.16-6.1-4.56-11.9-7.61-17.6-0.93-1.93-0.93-1.93-0.93-3.93 8.09-3.57 16.3-6.02 24.9-8.19 0.96-0.25 1.93-0.5 2.92-0.75 14-3.45 27.6-4.39 42-4.32z" fill="#064187"/>
<path transform="translate(224 928)" d="m0 0c1.13-0.01 2.26-0.01 3.42-0.02 1.24 0.01 2.48 0.02 3.75 0.03 1.31 0 2.61 0 3.96-0.01 3.58-0 7.16 0.01 10.8 0.03 3.76 0.02 7.52 0.01 11.3 0.02 6.32 0 12.6 0.01 19 0.04 8.09 0.02 16.2 0.04 24.2 0.04 6.98 0 14 0.02 20.9 0.03 2.22 0 4.45 0.01 6.68 0.01 3.52 0.01 7.05 0.02 10.6 0.03 1.89 0.01 3.77 0.01 5.66 0.01 28.3 0.14 60 4.47 81.3 25 7.03 7.54 7.03 7.54 7.03 11.2 0.99 0.33 1.98 0.66 3 1 8.79 16.2 12.9 35.9 8 54-4.71 15.4-14.3 29.3-28 38 0.03 1.9 0.03 1.9 1 4 2.79 1.85 2.79 1.85 6.19 3.43 8.35 4.26 13.8 9.37 19.8 16.6 0.65 0.75 1.29 1.5 1.96 2.27 6.68 8.92 11.2 19.8 13 30.7 0.32 1.79 0.32 1.79 0.65 3.61 2.79 17.7 0.07 34.1-10.4 48.9-16.8 22.5-41.5 29.8-68 34.1-2.75 0.34-5.3 0.47-8.06 0.4-3.22-0.12-3.22-0.12-6.19 1-1.89 0.1-3.78 0.13-5.67 0.13-1.21 0.01-2.42 0.01-3.66 0.01h-4.04c-1.41 0.01-2.82 0.01-4.23 0.01-3.84 0.01-7.68 0.01-11.5 0.01-3.2 0.01-6.4 0.01-9.61 0.01-7.55 0.01-15.1 0.01-22.7 0.01-7.8 0-15.6 0.01-23.4 0.03-6.7 0.01-13.4 0.02-20.1 0.02-4 0-8 0-12 0.01-3.77 0.01-7.53 0.01-11.3 0-1.38 0-2.76 0-4.14 0.01-1.88 0.01-3.77 0-5.66-0.01-1.05 0.01-2.1 0.01-3.19 0.01-2.98-0.26-5.16-1-7.86-2.25-0.63-64.8-1.13-130-1.23-194v-2.38c0-1.17 0-1.17-0.01-2.37-0.01-5.53-0.02-11.1-0.04-16.6-0.03-6.76-0.04-13.5-0.04-20.3 0-3.46-0.01-6.93-0.03-10.4-0.01-3.76-0.01-7.52-0.01-11.3-0.01-1.11-0.01-2.21-0.02-3.35 0-1.01 0.01-2.01 0.01-3.05v-2.64c0.37-2.21 0.37-2.21 1.55-3.99 2.51-1.68 4.24-1.59 7.25-1.59z" fill="#00A1E4"/>
<path transform="translate(493 928)" d="m0 0c0.82 0.01 1.64 0.01 2.49 0.02h2.56c1.8 0.01 3.59 0.01 5.39 0.03 2.73 0.01 5.46 0.02 8.19 0.02 1.74 0 3.49 0.01 5.23 0.01 1.22 0.01 1.22 0.01 2.46 0.01 4.63 0.04 9.15 0.16 13.7 1.16 2.46 3.7 2.27 6.5 2.22 10.8v2.39c0 2.62-0.01 5.23-0.03 7.84 0 1.82 0 3.63-0.01 5.44 0 4.77-0.02 9.54-0.05 14.3-0.02 4.86-0.03 9.73-0.04 14.6-0.02 9.54-0.05 19.1-0.09 28.6 3.56-1.37 6.33-2.82 9.37-5.12 17.1-12.2 34.1-17.1 55-17.1h2.19c10.4 0.01 20.4 0.32 30.4 3.25 0.92 0.27 1.84 0.54 2.79 0.81 2.81 0.93 5.49 2.02 8.21 3.19 0.65 0.28 1.3 0.56 1.97 0.85 8.8 3.83 16.8 7.7 24 14.2 1.14 0.95 1.14 0.95 2.31 1.92 4.13 3.48 4.13 3.48 5.69 5.08v2h2v2h2l2 5h2c1.69 2.51 3.24 5.01 4.75 7.63 0.44 0.77 0.89 1.54 1.35 2.34 6.53 11.4 11 23.2 13.9 36 0.27 1.2 0.27 1.2 0.54 2.42 1.55 7.53 1.76 14.8 1.71 22.5 0 1.19 0.01 2.37 0.02 3.59-0.07 30.5-14.5 55.7-35.6 76.8-14.5 13.6-35.4 21.5-55.1 22.5-2.63 0.04-2.63 0.04-4.65 1.21-21.2 1.63-40.4-0.42-59-11-1.33-0.67-2.66-1.35-4-2v-2c-0.54-0.09-1.09-0.18-1.64-0.28-3.08-0.94-5.42-2.52-8.11-4.28-0.99-0.64-1.97-1.28-2.99-1.94-0.75-0.5-1.49-0.99-2.26-1.5-0.06 0.6-0.11 1.2-0.17 1.82-0.25 2.71-0.51 5.41-0.77 8.12-0.09 0.95-0.17 1.89-0.26 2.86-0.09 0.9-0.18 1.8-0.27 2.73-0.08 0.83-0.16 1.66-0.24 2.52-0.29 1.95-0.29 1.95-1.29 2.95-3.06 0.13-6.09 0.19-9.15 0.21-0.92 0-1.84 0.01-2.79 0.01-1.95 0.01-3.91 0.02-5.86 0.02-2.99 0.01-5.98 0.04-8.97 0.07-1.9 0.01-3.79 0.02-5.69 0.02-0.9 0.01-1.79 0.03-2.71 0.04-0.84-0.01-1.68-0.01-2.54-0.01-0.73 0-1.47 0.01-2.22 0.01-2.75-0.49-4.04-1.48-6.07-3.37-0.5-2.09-0.5-2.09-0.5-4.56-0.01-0.94-0.02-1.89-0.03-2.86 0.02-1.55 0.02-1.55 0.03-3.14 0-1.1-0.01-2.2-0.01-3.33-0.01-3.7 0-7.41 0.02-11.1 0-2.65 0-5.29-0.01-7.94-0.01-6.46 0-12.9 0.02-19.4 0.02-7.51 0.02-15 0.02-22.5 0-13.4 0.02-26.8 0.05-40.2 0.02-13 0.04-26 0.04-39v-2.43-2.43c-0.01-14.8 0.01-29.6 0.02-44.4 0.01-5.24 0.01-10.5 0.01-15.7 0-6.38 0.01-12.8 0.03-19.2 0.01-3.26 0.02-6.52 0.01-9.78 0-3.52 0.01-7.05 0.03-10.6 0-1.03-0.01-2.07-0.01-3.14 0.01-0.94 0.01-1.88 0.02-2.85v-2.47c0.63-4.84 4.23-4.2 8.25-4.22z" fill="#00A1E4"/>
<path transform="translate(914,1017)" d="m0 0v2c0.99 0.33 1.98 0.66 3 1v2h2v2h2c5.53 5.94 5.53 5.94 6 10h2v2h2c14.8 28.9 24.4 61 14.3 93.2-9.75 27.8-27.7 50.9-54.4 64-11 5.25-22.7 9.85-35 9.78l-2 1c-2.83 0.07-5.64 0-8.47-0.06-2.53-0.12-2.53-0.12-4.53 1.06-26-0.11-52.8-6-74-22v-2c-0.76-0.29-1.53-0.58-2.31-0.88-2.69-1.12-2.69-1.12-5.69-3.12v-2h-2c-3.91-3.79-7.56-8.12-10-13v-2h-2c-17.4-28.8-24.2-57.9-16-91 0.23-0.94 0.46-1.89 0.7-2.86 2.03-7 5.29-13.4 8.61-19.8 0.68-1.32 0.68-1.32 1.37-2.66 3.21-6.07 6.97-11.4 11.3-16.6 0.7-0.92 1.41-1.85 2.13-2.8 12.4-14.6 32.6-24.6 50.6-30.1 0.99-0.3 0.99-0.3 2-0.61 35.9-10.2 80-0.35 108 23.5z" fill="#00A1E4"/>
<path transform="translate(657,396)" d="m0 0c1.21 2.52 2.11 4.83 2.96 7.48 0.27 0.78 0.54 1.56 0.81 2.36 0.58 1.7 1.15 3.4 1.72 5.1 0.89 2.71 1.81 5.4 2.73 8.1 0.96 2.81 1.92 5.61 2.87 8.42 3.06 9.02 6.24 18 9.46 27 0.86 2.39 1.71 4.78 2.57 7.17 3.05 8.52 6.22 17 9.55 25.4 2.85 7.23 4.67 12.2 3.33 20l-2-3-1 2c-2.31 0.73-4.65 1.4-7 2v-2c-2.44 0.27-2.44 0.27-5 1l-2 3 3 3c-3.07 1.53-5.7 0.55-9 0v2l2 1v5c-2.97-0.5-2.97-0.5-6-1-0.25-0.97-0.5-1.94-0.75-2.94-0.41-1.01-0.83-2.02-1.25-3.06-1.93-0.75-1.93-0.75-4-1-1.75-1.44-1.75-1.44-3-3v-2l-2-1c-0.72-1.64-1.39-3.31-2-5-1.98 0.35-1.98 0.35-4 1l-1 2h-2l-1 2h-3v4l-1 2c-1.11-0.16-2.23-0.33-3.38-0.5-4.64-0.64-7.25-0.32-11.6 1.5-1.39 1.87-1.39 1.87-2 4-0.5 1.49-0.5 1.49-1 3-0.78 0.12-1.57 0.25-2.38 0.38-2.76 0.41-2.76 0.41-4.62 2.62l1 3c-0.1 2.48-0.4 4.91-0.7 7.38-0.33 2.54-0.33 2.54-0.35 4.77-0.22 5.63-2.61 8.33-6.36 12.2-1.68 1.59-1.68 1.59-2.59 3.66h-2l1 3-1 2 2 1v5c0.62 0.29 1.24 0.58 1.88 0.88 2.12 1.12 2.12 1.12 4.12 3.12 2.32 1.04 4.65 2.04 7 3v2c0.99 0.33 1.98 0.66 3 1l-1 3c0.95 0.27 1.9 0.54 2.88 0.81 3.12 1.19 3.12 1.19 5.12 4.19l2 1c0.99-0.33 1.98-0.66 3-1v2h2v2c0.99-0.33 1.98-0.66 3-1 4 3.49 5.63 5.65 6 11l-2 1c-0.99-0.33-1.98-0.66-3-1v2c-1.63 1.71-3.29 3.38-5 5l2 1h-5l-1 3h-2l-1 3c0.45 0.33 0.91 0.66 1.38 1 1.76 2.17 2.08 3.44 2.68 6.12 0.31 1.28 0.62 2.56 0.94 3.88l2 1c3.25 4.12 4.6 6.73 4 12l-1 2h2c0.25 0.91 0.5 1.82 0.75 2.75 0.98 3.25 0.98 3.25 3.13 5 2.78 2.95 3.78 6.03 5.17 9.8 0.95 2.61 0.95 2.61 2.64 5.51 1.73 3.88 2.28 7.7 2.31 11.9l-1 2h2c0.43 1.7 0.43 1.7 0.88 3.44 0.37 1.17 0.74 2.35 1.12 3.56l2 1c0.93 2 0.93 2 1.88 4.56 1.54 4.04 3.27 7.86 5.24 11.7 1.76 3.51 2.93 6.96 3.88 10.8l1 1c0.32 1.58 0.61 3.16 0.88 4.75 0.6 3.24 1.09 5.21 2.81 8.06 1.31 2.19 1.31 2.19 0.76 4.55-0.79 4.62 2 7.93 4.55 11.6 1.58 1.81 3.22 3.37 5 5l1 2h2v5c0.99-0.33 1.98-0.66 3-1l1 2h-3c0.83 0.39 1.65 0.78 2.5 1.19 2.5 1.81 2.5 1.81 2.94 4.31-0.44 2.5-0.44 2.5-2.44 5.5 2.18 3.31 4.4 6.56 6.75 9.75 2.25 3.25 2.25 3.25 2.25 5.25l2 1c4 5.41 4 5.41 4 9l2 1v5h2v2h2v2l2 1-1 4 3 2c0.31 0.66 0.62 1.32 0.94 2 1.32 2.49 2.53 2.89 5.06 4 2.14 2.14 2.43 3.13 3 6h3v2l1.88 0.94c1.37 0.68 2.74 1.37 4.12 2.06v2h2c0.99 1.49 0.99 1.49 2 3 2.54 1.13 2.54 1.13 5.44 2 5.23 1.67 5.23 1.67 7 3.44 2.35 2.34 5.07 3.24 8.12 4.5 0.94 0.39 0.94 0.39 1.89 0.79 3.66 1.52 7.35 2.97 11 4.39 5.21 2.07 9.32 4.1 12.5 8.88 2.7 0.9 5.4 1.46 8.18 2.06 3.28 1.09 5.15 2.77 7.82 4.94 3.02 1.43 3.02 1.43 6.25 2.56 1.06 0.4 2.11 0.79 3.2 1.19 1.17 0.42 2.34 0.83 3.55 1.25 0.68 0.25 1.35 0.5 2.05 0.75 6.73 2.39 13.5 3.53 20.6 4.62 6.78 1.17 6.78 1.17 9.95 3.59 1.58 2.25 2.43 4.5 3.43 7.04l3 2-1 4 3 2c-1 1-1 1-3.13 1.11-0.92 0-1.84-0.01-2.78-0.01-0.99-0.01-1.98-0.01-3-0.01-1.56-0.01-1.56-0.01-3.15-0.03-1.05 0-2.09-0.01-3.17-0.01-2.59-0.01-5.18-0.03-7.77-0.05l-1 2c-38.7-2.46-73.6-11.9-107-32-1.53-0.9-1.53-0.9-3.09-1.82-3.36-2-6.66-4.02-9.91-6.18v-2c-0.66-0.19-1.32-0.37-2-0.56-4.35-2.09-7.47-5.2-11-8.44-0.98-0.86-1.95-1.72-2.96-2.61-1.01-0.9-2.03-1.8-3.04-2.7-0.95-0.84-1.9-1.69-2.88-2.55-2.12-2.14-2.12-2.14-2.12-4.14-0.57-0.23-1.15-0.46-1.74-0.7-4.32-2.48-6.99-6.85-10-10.7-1.19-1.52-2.41-3.01-3.63-4.49-17-21.2-28.8-46.5-37.8-72-1.96-5.38-4.13-10.7-6.26-16-3.12-7.87-5.9-15.8-8.67-23.8-2.92-8.4-5.91-16.8-8.9-25.2-0.48-1.34-0.48-1.34-0.97-2.71-6.02-16.8-12.2-33.6-18.4-50.4-2.01-5.43-4.02-10.9-6.02-16.3-4.83-13.1-9.66-26.3-14.6-39.4-0.34-0.9-0.67-1.8-1.02-2.73-0.68-1.82-1.36-3.64-2.04-5.47-5.4-14.5-10.8-29-16-43.5-3.68-10.3-7.46-20.5-11.3-30.7-0.93-2.49-1.86-4.98-2.79-7.46-1.39-3.72-2.79-7.44-4.19-11.2-1.31-3.46-2.61-6.93-3.91-10.4-0.6-1.58-0.6-1.58-1.22-3.19-0.35-0.96-0.71-1.93-1.08-2.92-0.32-0.85-0.64-1.69-0.97-2.56-0.55-2.17-0.55-2.17 0.45-5.17 2.38-1.18 2.38-1.18 5.56-2.31 1.2-0.44 2.39-0.87 3.62-1.32 0.64-0.23 1.27-0.45 1.92-0.69 3.02-1.08 6.02-2.23 9.02-3.37 2.96-1.1 5.92-2.21 8.88-3.31 1-0.37 2-0.75 3.03-1.13 12.1-4.53 24.3-9.02 36.6-13.3 7.48-2.6 14.9-5.39 22.3-8.19 7.11-2.67 14.2-5.32 21.4-7.92 0.92-0.34 1.85-0.68 2.8-1.03 0.85-0.31 1.71-0.62 2.59-0.94 0.75-0.27 1.5-0.54 2.27-0.82 6.99-2.36 6.99-2.36 10.1-0.71z" fill="#00A1E4"/>
<path transform="translate(1110 992)" d="m0 0h2.85c1 0.01 2 0.02 3.04 0.03 1.55 0.01 1.55 0.01 3.14 0.01 3.3 0.01 6.6 0.04 9.9 0.06 2.24 0.01 4.48 0.02 6.73 0.03 5.48 0.02 11 0.05 16.5 0.1 1.12 3.76 1.12 3.76 0 5.88-0.52 0.63-1.03 1.26-1.56 1.91-0.56 0.69-1.12 1.39-1.7 2.11-0.57 0.69-1.15 1.38-1.74 2.1-0.5 0.61-1 1.22-1.51 1.85-0.99 1.21-1.98 2.42-2.98 3.62-5.84 7.05-11.3 14.3-16.6 21.7-4.24 5.94-8.62 11.8-13.1 17.5-3.14 4.08-6.25 8.19-9.32 12.3-8.13 10.9-16.7 21.5-25.5 31.9 2.81 8.26 8.58 14.6 13.9 21.4 0.57 0.73 1.14 1.45 1.72 2.2 0.56 0.71 1.12 1.42 1.69 2.15 1.84 2.43 3.58 4.91 5.31 7.41 3.2 4.62 6.4 9.01 10.6 12.8 2.24 2.47 2.94 4.8 3.81 8h2v2h2l1 3 2.31 2.31c2.72 2.72 4.61 5.47 6.69 8.69 0.68 0.84 1.36 1.69 2.06 2.56 2.83 3.56 4.97 7.35 6.94 11.4h2c1.48 1.78 2.88 3.62 4.25 5.5 2.69 3.69 5.41 7.35 8.25 10.9 2.11 2.79 3.27 4.98 3.5 8.57-2.95 0.98-4.88 1.13-7.96 1.13-1 0-2 0-3.03 0.01-1.08-0.01-2.15-0.01-3.26-0.02-1.11 0-2.21-0.01-3.35-0.01-3.47-0.03-6.94-0.07-10.4-0.11-1.1-0.02-2.2-0.03-3.33-0.04-3.12-0.05-6.24-0.12-9.36-0.21-0.95-0.02-1.9-0.03-2.87-0.05-5.61-0.2-9.1-0.84-13.4-4.7-1.84-2.15-3.43-4.41-5-6.75-0.86-1.25-1.73-2.5-2.59-3.75-0.41-0.6-0.82-1.2-1.24-1.82-1.97-2.83-4.08-5.53-6.21-8.23-0.96-1.45-0.96-1.45-0.96-3.45-0.99-0.33-1.98-0.66-3-1-1.3-1.39-1.3-1.39-2.6-3.18-0.49-0.66-0.97-1.31-1.48-1.99-0.51-0.71-1.02-1.42-1.55-2.15l-3.24-4.41c-0.54-0.72-1.07-1.45-1.62-2.2-2.04-2.79-4.12-5.56-6.2-8.32-4.44-5.92-8.87-11.8-13.3-17.8-3.59 0.6-3.92 0.89-6.3 4.02-0.83 1.3-1.64 2.61-2.45 3.91-3.48 5.43-7.09 10.6-11.2 15.6-5.52 6.74-10.8 13.7-15.9 20.8-1.4 1.92-2.79 3.83-4.19 5.75-0.5 0.68-1 1.37-1.52 2.08-1.69 2.32-3.4 4.62-5.11 6.92-0.8 1.11-0.8 1.11-1.63 2.25-3.14 4.18-5.6 7.14-10.7 8.75-3.47 0.36-6.89 0.32-10.4 0.25-1.48-0.02-1.48-0.02-3-0.04-11.2-0.16-22.4-0.65-33.6-1.21l-1-3c1.6-2.47 1.6-2.47 4.06-5.5 0.92-1.16 1.84-2.31 2.76-3.47 0.51-0.64 1.01-1.27 1.53-1.93 3.1-3.97 6.05-8.04 9.02-12.1 3.47-4.74 6.93-9.45 10.6-14 5.99-7.71 11.9-15.5 17.8-23.2 0.68-0.9 1.37-1.8 2.07-2.72l7.98-10.5c5.77-7.58 11.6-15.2 17.6-22.6 0.53-0.66 1.05-1.31 1.59-1.98 0.58-0.67 1.16-1.34 1.76-2.03 1.66-2.14 1.66-2.14 0.43-5.72-0.4-1.08-0.79-2.15-1.19-3.25h-2c-1.23-1.66-1.23-1.66-2.63-3.94-2.8-4.37-5.98-8.09-9.47-11.9-6.9-7.77-6.9-7.77-6.9-12.1-0.59-0.25-1.18-0.49-1.79-0.74-2.62-1.5-3.85-3.05-5.64-5.48-0.63-0.85-1.26-1.7-1.91-2.58-0.65-0.89-1.3-1.78-1.97-2.7-0.64-0.86-1.28-1.73-1.94-2.61-3.2-4.33-6.32-8.69-9.39-13.1-2.81-4.04-5.73-7.94-8.8-11.8-0.47-0.6-0.94-1.19-1.42-1.8-2.78-3.51-5.58-6.98-8.39-10.4-10.8-13.4-10.8-13.4-10.8-17.8 7.47-0.08 15-0.13 22.4-0.17 2.55-0.01 5.09-0.03 7.63-0.06 3.66-0.04 7.31-0.05 11-0.07 1.14-0.01 2.28-0.03 3.45-0.04h3.22c0.93-0.01 1.86-0.02 2.82-0.02 2.98 0.43 4.31 1.34 6.5 3.36 1.05 1.63 2.04 3.3 3 5 3.01 4.76 5.93 9.07 10 13 0.91 1.37 1.81 2.75 2.7 4.14 1.62 2.32 3.42 4.44 5.24 6.61 4.24 5.13 8.21 10.4 12.1 15.8 0.58 0.8 1.17 1.6 1.77 2.42 0.54 0.75 1.08 1.5 1.64 2.27 0.49 0.67 0.98 1.35 1.48 2.04 1.05 1.71 1.05 1.71 1.05 3.71 1.48 0.49 1.48 0.49 3 1 0.31 0.64 0.62 1.28 0.94 1.93 1.3 2.55 2.51 2.92 5.06 4.07 4.97-5.49 9.47-11.2 13.8-17.2 4.17-5.71 8.36-11.4 12.7-17 5.66-7.31 11.2-14.7 16.6-22.2 0.64-0.86 1.27-1.72 1.93-2.61 0.63-0.9 1.27-1.79 1.93-2.71 3.39-3.76 7.01-4.55 12-4.52z" fill="#00A1E4"/>
<path transform="translate(1170,993)" d="m0 0c7.42-0.2 14.8-0.34 22.3-0.44 2.52-0.04 5.05-0.09 7.57-0.16 3.63-0.1 7.26-0.15 10.9-0.18 1.13-0.04 2.25-0.08 3.41-0.13 7.71 0 7.71 0 11.1 2.67 1.76 2 3.27 4.04 4.76 6.24 1.02 0.99 1.02 0.99 2.06 2 4.92 5.07 8.7 11.1 12.6 17 1.66 2.46 3.47 4.73 5.36 7.02 6.35 8.07 12.5 16.2 18.3 24.7 1.73 2.33 3.61 4.3 5.71 6.3 3.57-1.44 5.04-3.12 7.12-6.31 2.79-4.14 5.7-8.13 8.76-12.1 3.24-4.18 6.45-8.38 9.62-12.6 3.93-5.26 7.92-10.5 11.9-15.7 1.78-2.31 3.55-4.64 5.31-6.97 0.45-0.59 0.9-1.19 1.36-1.8 0.87-1.14 1.72-2.28 2.58-3.42 1.98-2.61 3.55-4.3 6.31-6.14 2.22-0.24 2.22-0.24 4.84-0.23h2.97c1.59 0.02 1.59 0.02 3.2 0.03 1.09 0.01 2.17 0.01 3.28 0.01 3.47 0.01 6.93 0.04 10.4 0.07 2.34 0.01 4.69 0.01 7.04 0.02 5.76 0.02 11.5 0.06 17.3 0.1 0.58 1.89 0.58 1.89 1 4-1.2 1.83-1.2 1.83-3.02 3.69-3.91 4.19-7.26 8.61-10.6 13.2-6.66 9.12-13.5 18.1-20.4 27.1-1.6 2.08-3.21 4.17-4.81 6.25-0.79 1.02-1.58 2.05-2.39 3.1-2.23 2.9-4.45 5.82-6.66 8.74-12.7 16.7-12.7 16.7-19.3 24.7-2.73 3.33-5.3 6.77-7.84 10.2 6.57 11.2 6.57 11.2 15 21 4 4.54 4 4.54 4 8h2c1.45 1.74 2.81 3.54 4.12 5.38 0.73 0.99 1.45 1.99 2.2 3.02 1.68 2.6 1.68 2.6 1.68 4.6 0.99 0.33 1.98 0.66 3 1 1.81 2.24 3.48 4.46 5.12 6.81 0.46 0.63 0.92 1.26 1.38 1.91 3.4 4.8 3.4 4.8 3.95 7.43 0.18 0.61 0.36 1.22 0.55 1.85 0.99 0.33 1.98 0.66 3 1 1.54 1.86 1.54 1.86 3.19 4.31 0.61 0.9 1.22 1.8 1.85 2.72 1.34 2.04 2.68 4.08 4.02 6.13 0.68 1.04 1.36 2.08 2.06 3.15 0.63 0.97 1.25 1.93 1.89 2.93 2.1 2.91 4.41 5.27 6.99 7.76 4.97 5.28 9.13 10.9 13 17-3.15 2.1-3.93 2.26-7.53 2.29-0.91 0.01-1.83 0.03-2.77 0.04-1.48 0-1.48 0-2.99 0.01-1.02 0-2.04 0.01-3.09 0.02-2.17 0.01-4.33 0.01-6.49 0.01-3.29 0-6.58 0.04-9.87 0.08-2.1 0.01-4.2 0.01-6.3 0.01-0.98 0.02-1.96 0.03-2.96 0.04-7.08-0.04-12.6-1.32-17.9-6.25-0.4-0.58-0.8-1.15-1.21-1.75-0.46-0.64-0.92-1.28-1.39-1.94-0.44-0.66-0.88-1.32-1.34-2-0.47-0.65-0.93-1.31-1.41-1.98-1.86-2.67-3.64-5.34-5.29-8.15-1.94-3.17-4.23-6.03-6.55-8.93-0.99-1.24-1.97-2.49-2.96-3.73-0.75-0.95-0.75-0.95-1.51-1.9-5.83-7.38-11.5-14.8-16.9-22.6-2.45-3.5-5.02-6.9-7.61-10.3-4.88 0.84-6.64 4.04-9.38 7.88-0.51 0.71-1.03 1.42-1.57 2.15-1.12 1.53-2.23 3.06-3.34 4.6-2.26 3.12-4.55 6.22-6.84 9.33-4.21 5.69-8.4 11.4-12.6 17.1-14.6 19.9-14.6 19.9-18.3 23.9-0.75 0.9-1.49 1.8-2.26 2.73-5.16 4.18-12.8 2.82-19.1 2.65-1.44-0.03-2.89-0.05-4.34-0.07-9.44-0.14-18.9-0.44-28.3-1.31 0.31-6.19 3.4-9.87 7-14.6 0.59-0.8 1.18-1.6 1.79-2.42 1.72-2.33 3.47-4.64 5.21-6.96l2.55-3.42c2.14-2.87 4.29-5.73 6.45-8.58 0.71-0.96 1.43-1.92 2.16-2.91 4.84-6.5 9.8-12.9 14.8-19.2 3.36-4.27 6.69-8.55 10-12.8 3.84-4.94 7.68-9.87 11.5-14.8 0.92-1.16 1.83-2.33 2.74-3.5 1.95-2.5 3.93-4.95 5.99-7.36 0.98-1.16 0.98-1.16 1.98-2.35 0.56-0.64 1.12-1.28 1.7-1.94 1.6-3.13 1.09-4.72 0.05-8.06-1.61-2.84-3.5-5.44-5.44-8.06-0.54-0.75-1.08-1.5-1.63-2.26-4.09-5.62-8.29-11.1-12.6-16.6-17.4-22.4-17.4-22.4-17.4-26.1-0.57-0.2-1.13-0.4-1.71-0.61-3.16-1.92-4.83-4.63-6.85-7.64-3.55-5.12-7.2-10.1-11.1-15-0.46-0.58-0.92-1.16-1.4-1.76-1.32-1.66-2.65-3.33-3.98-4.99-0.78-0.98-1.56-1.95-2.37-2.96-1.32-1.65-2.65-3.31-3.97-4.95-0.55-0.69-1.1-1.38-1.66-2.09-0.57-0.69-1.13-1.38-1.72-2.09-1.28-1.91-1.28-1.91-1.28-4.91z" fill="#00A1E4"/>
<path transform="translate(881,624)" d="m0 0c0.68 0.5 1.36 1 2.05 1.52 12.2 9.73 22.4 27.1 24.7 42.6 1.63 22.2-1.54 42-16.2 59.5-12.2 14-27.2 22.6-45.8 24-21 1.29-38.9-2.41-55.1-16.4-14.8-13.1-24.3-28.9-26-48.9-0.64-18.8 6.23-38.4 18.6-52.6 11.9-12.7 25.2-21 42.6-23.8 0.68-0.12 1.36-0.24 2.06-0.37 18.8-2.8 38.1 2.88 52.9 14.4z" fill="#FBFEFF"/>
<path transform="translate(876 1045)" d="m0 0c3.75 3.17 3.75 3.17 5.4 5.06v2h2c12.6 14.3 16.1 31.6 16 50-0.34 4.76-1.02 9.33-2 14-0.17 0.87-0.34 1.73-0.52 2.63-3.41 13.8-13.5 26.8-25.5 34.4-10.8 6.16-19.9 8.38-32.2 8.31-1.01 0-2.02-0.01-3.07-0.01-17-0.27-30.3-5.34-42.7-17.3v-2h-2v-2c-0.99-0.33-1.98-0.66-3-1-11.8-17-14-39.7-10.5-59.8 2.81-10.8 9.14-21.8 17.5-29.2 0.53-0.53 1.05-1.06 1.6-1.6 21.3-20.5 56-20.7 79-3.46z" fill="#FBFEFF"/>
<path transform="translate(627,1040)" d="m0 0c1.71 1.58 1.71 1.58 3 3 0.74 0.43 1.49 0.87 2.25 1.31 6.28 3.86 10.5 8.03 13.8 14.7 0.48 0.91 0.97 1.82 1.47 2.76 8.83 16.9 12.2 38.6 6.53 57.2-3.46 8.56-7.81 17.1-14 24-0.59 0.67-1.19 1.35-1.8 2.04-10.1 10.8-22.6 15.6-37.2 16.3-19.3 0.44-32.9-3.23-48.2-15.6-0.86-0.84-0.86-0.84-1.73-1.7v-2h-2v-2h-2c-9.2-15.1-13.9-28.1-13.1-46 0.08-1.77 0.1-3.55 0.12-5.33 0.4-11.9 5.74-23.4 13-32.7 0.41-0.59 0.83-1.18 1.25-1.78 8.63-11.3 23.5-18.3 37.2-20.9 14.8-1.5 28.1-0.22 41.5 6.64z" fill="#FBFEFF"/>
<path transform="translate(224 928)" d="m0 0c1.13-0.01 2.26-0.01 3.42-0.02 1.24 0.01 2.48 0.02 3.75 0.03 1.31 0 2.61 0 3.96-0.01 3.58-0 7.16 0.01 10.8 0.03 3.76 0.02 7.52 0.01 11.3 0.02 6.32 0 12.6 0.01 19 0.04 8.09 0.02 16.2 0.04 24.2 0.04 6.98 0 14 0.02 20.9 0.03 2.22 0 4.45 0.01 6.68 0.01 3.52 0.01 7.05 0.02 10.6 0.03 1.89 0.01 3.77 0.01 5.66 0.01 28.3 0.14 60 4.47 81.3 25 7.03 7.54 7.03 7.54 7.03 11.2 0.99 0.33 1.98 0.66 3 1 1.75 2.87 1.75 2.87 3 6l-1 3c-0.1-0.64-0.21-1.28-0.31-1.94-0.23-0.68-0.46-1.36-0.69-2.06-0.99-0.33-1.98-0.66-3-1-1.84-1.88-3.37-3.93-5-6v3h-2v-2c-0.82 0.69-1.65 1.38-2.5 2.09-3.77 2.05-5.33 2.09-9.42 1.03-1.03-0.31-1.03-0.31-2.08-0.62-1.03-0.27-1.03-0.27-2.08-0.53-4.58-1.26-8.05-3.13-11.9-5.97-7.92-5.39-16.7-5.8-26-6.72-2.01-0.28-2.01-0.28-5.45-1.35-3.78-0.99-6.86-1.02-10.7-0.81-3.14-0.14-6-0.86-9.05-1.57-5.23-1.04-10.5-1.48-15.8-1.99-2-0.19-4.01-0.39-6.01-0.59-6.35-0.63-12.6-1.07-18.9-0.97-2.55-0.23-5.07-0.55-7.61-0.88-2.4-0.22-2.4-0.22-4.74 0.35-2.52 0.5-4.87 0.73-7.42 0.84-1.35 0.07-1.35 0.07-2.73 0.13-0.95 0.04-1.9 0.08-2.87 0.12-0.98 0.04-1.96 0.09-2.97 0.13-6.83 0.29-13.6 0.35-20.5 0.15-3.64 0.18-6.71 1.07-10.2 2.16-1.26 0.24-2.52 0.49-3.81 0.75-3.36 0.9-3.36 0.9-4.38 3.68-0.27 1.18-0.53 2.36-0.81 3.57-0.51 1.14-0.51 1.14-1.03 2.31-3.12 7.08-2.98 12.6-2.2 20.2 0.29 4.36-0.53 7.31-1.77 11.5-0.24 5.67 0.32 10.8 1.44 16.4 0.13 0.71 0.27 1.42 0.41 2.15 0.73 3.85 0.73 3.85 2.15 7.48l-1 2 2 1-1 2 2 1c1 1 1 1 1 3 1.49-0.5 1.49-0.5 3-1 1.49 0.49 1.49 0.49 3 1v4c0.25 0.64 0.5 1.28 0.75 1.93 0.25 2.07 0.25 2.07-1.5 4.82l-2.25 2.25h-3c0.01 0.67 0.02 1.35 0.04 2.04 0 0.9 0.01 1.79 0.02 2.71 0.01 0.88 0.03 1.76 0.04 2.67-0.1 2.58-0.1 2.58-0.6 4.43-0.56 2.41-0.63 4.57-0.63 7.04-0.01 1.43-0.01 1.43-0.01 2.88 0.01 1 0.01 2.01 0.02 3.04 0 1.03 0 2.05 0.01 3.11-0.94 14-0.94 14 3.11 26.1l1-1c1.07 0.04 2.15 0.08 3.25 0.12 3.96-0.13 5.6-0.83 8.75-3.12l6 5 2-2 1 3v-5h2c0.03 6.15 0.04 12.3 0.06 18.5 0 2.09 0.01 4.18 0.02 6.28 0.01 3.01 0.01 6.02 0.02 9.04 0 0.93 0.01 1.86 0.01 2.82 0 4.58-0.17 8.88-1.11 13.4-2-3-2-3-2-5-2.31 0.33-4.62 0.66-7 1v-2h-2v-2h-2c-1.26-2.91-2-4.8-2-8-1.11 0.16-2.23 0.33-3.37 0.5-3.63 0.5-3.63 0.5-5.63 0.5-3.86 6.53-5.6 12.3-6.54 19.8-0.87 6.06-2.61 11.8-5.46 17.2h-3c-0.12 0.7-0.25 1.4-0.37 2.12-0.63 2.88-0.63 2.88-1.82 5.75-1.11 3.17-1.11 3.17 0.19 6.44 1.15 4.24 0.56 6.29-0.55 10.4-0.7 3.58-0.02 6.69 0.55 10.3l-1 2h-2v2l-5-1c-0.63-64.8-1.13-130-1.23-194v-2.38c0-1.17 0-1.17-0.01-2.37-0.01-5.53-0.02-11.1-0.04-16.6-0.03-6.76-0.04-13.5-0.04-20.3 0-3.46-0.01-6.93-0.03-10.4-0.01-3.76-0.01-7.52-0.01-11.3-0.01-1.11-0.01-2.21-0.02-3.35 0-1.01 0.01-2.01 0.01-3.05v-2.64c0.37-2.21 0.37-2.21 1.55-3.99 2.51-1.68 4.24-1.59 7.25-1.59z" fill="#009CDE"/>
<path transform="translate(277 1082)" d="m0 0c1.72 0.01 1.72 0.01 3.47 0.02 1.89 0.05 1.89 0.05 3.82 0.09 1.35 0.02 2.69 0.04 4.04 0.05 3.84 0.05 7.68 0.13 11.5 0.21 2.78 0.06 5.57 0.11 8.36 0.16 35.8 0.6 35.8 0.6 52.2 1.32 0.8 0.03 1.59 0.06 2.42 0.09 10.6 0.52 21.2 2.81 29.7 9.49 0.9 0.67 0.9 0.67 1.81 1.36 1.45 1.14 2.83 2.38 4.19 3.64v2h2c0.99 1.74 1.96 3.49 2.94 5.25 0.54 0.97 1.09 1.94 1.65 2.95 3.63 7.19 3.42 16.4 1.95 24.2-0.69 2-1.5 3.72-2.54 5.56-0.4 0.73-0.8 1.47-1.22 2.23-5.48 9.09-13.6 15-23.8 17.8-21.1 4.14-43.2 3.18-64.5 3.18-3.96 0-7.93 0.01-11.9 0.03-3.08 0.01-6.17 0.02-9.25 0.01-1.47 0.01-2.93 0.01-4.39 0.02-2.04 0.01-4.08 0-6.11 0h-3.5c-3.73-0.27-6.77-1.1-10.3-2.24-1.08-4.55-1.33-9.1-1.54-13.8-0.04-0.87-0.09-1.74-0.13-2.64-0.44-10.1-0.59-20.3-0.62-30.4-0.02-2.17-0.04-4.33-0.07-6.49-0.04-3.18-0.06-6.35-0.07-9.53-0.01-0.96-0.03-1.93-0.05-2.93 0.02-6.54 0.02-6.54 2.16-9.86 2.85-1.71 4.52-1.87 7.84-1.82z" fill="#FBFEFF"/>
<path transform="translate(277 968)" d="m0 0c1.28-0 2.57-0.01 3.89-0.01 1.4 0.02 2.8 0.04 4.21 0.05 1.45 0.01 2.9 0.01 4.36 0.01 3.05 0.01 6.1 0.03 9.16 0.06 3.86 0.04 7.72 0.06 11.6 0.07 55.8 0.15 55.8 0.15 69.5 11.3 0.5 1.48 0.5 1.48 1 3h2v2h2c1.69 2.48 1.69 2.48 3.56 5.75 0.93 1.6 0.93 1.6 1.88 3.23 3.74 7.24 3.66 16 1.95 23.8-3.35 9.4-10.4 16.9-19.4 21.2-8.03 3.31-16 4.13-24.6 4.27-0.84 0.02-1.67 0.03-2.53 0.05-2.73 0.05-5.47 0.09-8.2 0.14-0.94 0.01-1.88 0.03-2.84 0.04-4.96 0.08-9.91 0.15-14.9 0.22-5.12 0.07-10.2 0.17-15.3 0.27-3.94 0.07-7.88 0.13-11.8 0.18-1.89 0.02-3.78 0.06-5.66 0.1-2.64 0.05-5.27 0.08-7.9 0.11-0.78 0.02-1.56 0.04-2.36 0.07-3.37 0-5.51-0.21-8.36-2.06-2-3.14-2.03-5.22-2.04-8.93 0-0.65-0.01-1.3-0.02-1.96-0.02-2.14 0-4.27 0.01-6.41 0-1.48-0.01-2.97-0.01-4.46-0.01-3.11 0-6.22 0.02-9.34 0.02-3.99 0.01-7.97-0.01-12-0.02-3.07-0.01-6.14 0-9.21 0-1.47 0-2.94-0.01-4.41-0.01-2.06 0-4.11 0.02-6.17 0.01-1.17 0.01-2.34 0.01-3.54 0.51-3 0.51-3 2.15-5.38 3.07-2.11 4.96-2.11 8.68-2.09z" fill="#FBFEFF"/>
<path transform="translate(657,396)" d="m0 0c1.21 2.52 2.11 4.83 2.96 7.48 0.27 0.78 0.54 1.56 0.81 2.36 0.88 2.59 1.74 5.19 2.61 7.78 0.91 2.72 1.84 5.43 2.77 8.14 0.64 1.88 1.27 3.76 1.91 5.64 3.45 10.2 7.1 20.3 10.8 30.4 1.18 3.24 2.35 6.49 3.52 9.73 0.26 0.71 0.52 1.42 0.78 2.14 2.48 6.88 2.48 6.88 2.89 9.38l-1 2c-3.44-1.53-6.12-3.6-9-6-0.14 0.76-0.29 1.53-0.44 2.31-0.56 2.69-0.56 2.69-1.56 5.69-3.21 1.38-5.68 0.79-9 0h-2v-3l-4 2c-0.69-2.31-0.69-2.31-1-5 1.25-1.81 1.25-1.81 3-3h3c-2.2-3.31-2.2-3.31-5-6-3.75-0.03-3.75-0.03-7 1v-2l-3-3v-2h-2c-0.5-2.97-0.5-2.97-1-6-1.98-0.5-1.98-0.5-4-1v-5l-10-1v-2l-4-2-1 3h-13c-0.56 0.17-1.11 0.33-1.69 0.5-2.28 0.49-4.06 0.47-6.37 0.38-3.84-0.31-3.84-0.31-5.63 1.68-0.43 0.48-0.86 0.95-1.31 1.44-2.69-0.31-2.69-0.31-5-1v-2c-7.62-0.29-15 0.81-22.5 1.88-1.28 0.17-2.56 0.34-3.88 0.52-7.77 1.08-7.77 1.08-15.4 2.86-1.06 0.24-2.13 0.49-3.22 0.74l-2-2c-0.41 0.64-0.83 1.28-1.25 1.94-1.94 2.28-2.81 2.78-5.75 3.06l-2-1v2h-3c0.31 0.8 0.31 0.8 0.62 1.61 4.18 10.8 8.25 21.7 12 32.6 1.71 4.95 3.5 9.85 5.35 14.8l1 3 2 1c0.56 1.88 0.56 1.88 1 4l1 3c0.04 1.67 0.05 3.33 0 5l2 1c0.82 2.11 0.82 2.11 1.56 4.75 0.25 0.86 0.5 1.72 0.76 2.61 0.65 2.53 1.19 5.07 1.68 7.64l1-3c1.84 0.19 1.84 0.19 4 1 1.38 2.19 1.38 2.19 2.56 5 0.42 0.99 0.84 1.97 1.27 2.99 1.54 3.97 2.9 7.95 4.17 12h5c-0.99 0.33-1.98 0.66-3 1v3h6c0.12 0.8 0.25 1.61 0.38 2.44 0.2 0.84 0.41 1.69 0.62 2.56l2 1 1 3 2 1-1 7 2 1c0.49 1.79 0.49 1.79 0.88 4.06 0.82 4.16 2.24 7.44 4.24 11.2 1.08 2.2 1.4 4.4 1.88 6.79 0.98 1.02 1.98 2.02 3 3v3h2c0.36 1.62 0.71 3.25 1.06 4.88 0.2 0.9 0.4 1.8 0.6 2.74 0.34 2.38 0.34 2.38-0.66 4.38h2c-0.31 1.94-0.31 1.94-1 4-0.99 0.33-1.98 0.66-3 1 0.29 0.89 0.58 1.77 0.88 2.69 1.04 3.57 1.55 7.13 2.06 10.8 0.73 5.06 1.86 8.92 4.06 13.5 0.75 2.32 1.38 4.64 2 7-0.99-0.33-1.98-0.66-3-1v-3h-2c0.45 1.29 0.91 2.59 1.38 3.88 0.25 0.71 0.51 1.43 0.77 2.17 0.79 2.13 0.79 2.13 2.85 3.95 0.13 0.83 0.27 1.66 0.41 2.52 0.79 4.65 2.43 8.82 4.09 13.2 2.71 7.29 5.32 14.6 7.82 22 4.13 12.1 8.69 24 13.7 35.8 2.54 6.1 4.94 12.2 7.02 18.4 7.04 17.5 15.5 34 27 49 0.59 0.8 1.19 1.61 1.8 2.44 5.94 7.93 12.8 15.3 19.9 22.2 2.31 2.38 2.31 2.38 2.31 4.38 0.56 0.25 1.11 0.5 1.69 0.75 4.83 2.61 8.46 6.4 12.3 10.2l2 1v2c-5.45-1.53-8.93-5.27-13-9-0.98-0.86-1.95-1.72-2.96-2.61-1.01-0.9-2.03-1.8-3.04-2.7-0.95-0.84-1.9-1.69-2.88-2.55-2.12-2.14-2.12-2.14-2.12-4.14-0.57-0.23-1.15-0.46-1.74-0.7-4.32-2.48-6.99-6.85-10-10.7-1.19-1.52-2.41-3.01-3.63-4.49-17-21.2-28.8-46.5-37.8-72-1.96-5.38-4.13-10.7-6.26-16-3.12-7.87-5.9-15.8-8.67-23.8-2.92-8.4-5.91-16.8-8.9-25.2-0.48-1.34-0.48-1.34-0.97-2.71-6.02-16.8-12.2-33.6-18.4-50.4-2.01-5.43-4.02-10.9-6.02-16.3-4.83-13.1-9.66-26.3-14.6-39.4-0.34-0.9-0.67-1.8-1.02-2.73-0.68-1.82-1.36-3.64-2.04-5.47-5.4-14.5-10.8-29-16-43.5-3.68-10.3-7.46-20.5-11.3-30.7-0.93-2.49-1.86-4.98-2.79-7.46-1.39-3.72-2.79-7.44-4.19-11.2-1.31-3.46-2.61-6.93-3.91-10.4-0.6-1.58-0.6-1.58-1.22-3.19-0.35-0.96-0.71-1.93-1.08-2.92-0.32-0.85-0.64-1.69-0.97-2.56-0.55-2.17-0.55-2.17 0.45-5.17 2.38-1.18 2.38-1.18 5.56-2.31 1.2-0.44 2.39-0.87 3.62-1.32 0.64-0.23 1.27-0.45 1.92-0.69 3.02-1.08 6.02-2.23 9.02-3.37 2.96-1.1 5.92-2.21 8.88-3.31 1-0.37 2-0.75 3.03-1.13 12.1-4.53 24.3-9.02 36.6-13.3 7.48-2.6 14.9-5.39 22.3-8.19 7.11-2.67 14.2-5.32 21.4-7.92 0.92-0.34 1.85-0.68 2.8-1.03 0.85-0.31 1.71-0.62 2.59-0.94 0.75-0.27 1.5-0.54 2.27-0.82 6.99-2.36 6.99-2.36 10.1-0.71z" fill="#009CDE"/>
<path transform="translate(390,990)" d="m0 0c2.78 3.18 3.89 6.31 5.06 10.3 0.46 0.85 0.46 0.85 0.94 1.71 1.32 0.38 2.66 0.71 4 1 2.09 1.57 2.87 2.52 3.54 5.06 0.29 8.13-3.23 13.3-7.54 19.9-0.35 0.73-0.71 1.46-1.07 2.21-1.4 2.69-3.48 4.07-5.93 5.79h-2c-2.35 0.97-4.68 1.97-7 3v-2h-3v4c-0.85 0.12-1.71 0.24-2.59 0.37-1.66 0.25-1.66 0.25-3.35 0.51-1.1 0.16-2.2 0.32-3.34 0.49-0.9 0.21-1.79 0.41-2.72 0.63-0.5 0.99-0.5 0.99-1 2 1.49 0.49 1.49 0.49 3 1-1.92 0.34-1.92 0.34-3.88 0.69-2.2 0.48-2.2 0.48-4.12 1.31-1.31 2.44-1.31 2.44-2 5-7.27 4.58-17.2 4.09-25.5 4.38-6.77 0.23-12.1 1.27-18.5 3.78-5.1 1.41-10.1 0.97-15.4 0.69-4.01 0.16-6.16 1.29-9.66 3.15-1.49-0.49-1.49-0.49-3-1-1.17-0.23-1.17-0.23-2.37-0.46-5.87-1.21-11.1-2.92-15.2-7.35-1.59-3.68-1.52-6.21-1.38-10.2-0.37-1.03-0.74-2.06-1.12-3.12-1.05-3.45-0.53-4.76 1.12-7.88 0.27 0.6 0.54 1.2 0.81 1.81 1.3 2.39 1.97 3.6 4.19 5.19 2.77 0.26 5.31 0.34 8.08 0.28 1.23-0.01 1.23-0.01 2.49-0.02 2.73-0.02 5.46-0.07 8.18-0.12l5.7-0.06c3.99-0.05 7.98-0.11 12-0.17 5.09-0.08 10.2-0.15 15.3-0.2 3.92-0.04 7.85-0.1 11.8-0.15 1.88-0.03 3.75-0.05 5.63-0.07 22.8-0.13 22.8-0.13 42.4-10.9 7.69-8.2 10-16 9.83-27.2-0.4-4.57-1.55-8.2-3.3-12.4l1-1z" fill="#009CDE"/>
<path transform="translate(903,1009)" d="m0 0c0.5 0.99 0.5 0.99 1 2-2.63 1-3.73 1.11-6.4 0.07-0.84-0.45-1.68-0.91-2.54-1.38-3.3-1.79-6.57-3.3-10.1-4.69l-1-1c-1.51-0.23-3.04-0.41-4.56-0.56-0.83-0.09-1.66-0.17-2.51-0.26-0.63-0.06-1.27-0.12-1.93-0.18l-1 2h2v2c3.47-0.5 3.47-0.5 7-1 0.5 1.98 0.5 1.98 1 4l-2 1v-2c-0.56 0.19-1.11 0.37-1.69 0.56-2.8 0.53-4.54 0.15-7.31-0.56-1.24-0.31-2.48-0.62-3.75-0.94-1.07-0.35-2.14-0.7-3.25-1.06-0.5-0.99-0.5-0.99-1-2-2.02-0.65-2.02-0.65-4-1v-2c-0.8-0.12-1.61-0.25-2.44-0.38-0.84-0.2-1.69-0.41-2.56-0.62-0.5-0.99-0.5-0.99-1-2-2.33-0.39-2.33-0.39-5-0.5-2.75-0.16-2.75-0.16-5-0.5-0.5-0.99-0.5-0.99-1-2l2-1h-6l2 1v2c-0.7 0.01-1.41 0.03-2.14 0.04-3.24 0.08-6.49 0.18-9.74 0.27-1.1 0.03-2.21 0.05-3.35 0.07-6.26 0.2-11.6 0.97-17.5 2.96-3.56 1.03-6.7 0.95-10.4 0.85-1.31-0.03-2.61-0.06-3.95-0.08-0.97-0.04-1.93-0.07-2.93-0.11 0.09-1.84 0.09-1.84 1-4 31.6-15.6 82.1-9.2 110 11z" fill="#009CDE"/>
<path transform="translate(493 928)" d="m0 0c0.82 0.01 1.64 0.01 2.49 0.02h2.56c1.8 0.01 3.59 0.01 5.39 0.03 2.73 0.01 5.46 0.02 8.19 0.02 1.74 0 3.49 0.01 5.23 0.01 1.22 0.01 1.22 0.01 2.46 0.01 4.63 0.04 9.15 0.16 13.7 1.16l2 3-2 4c-0.5-1.98-0.5-1.98-1-4-1.29 0.13-1.29 0.13-2.61 0.26-7.18 0.62-14 0.68-21.1 0-9.75-0.89-9.75-0.89-19.2 0.74-1.17 2.34-1.13 3.7-1.13 6.31 0 1.37 0 1.37-0.01 2.76 0.01 1.51 0.01 1.51 0.01 3.05v3.22c-0.01 3.59-0.01 7.18 0 10.8 0 2.56-0.01 5.13-0.01 7.69v18.8 15.2 2.19 4.4c0 13.8 0 27.6 0.01 41.3v35.5c-0.01 13.7-0.01 27.4-0.01 41.2v4.39 2.18 15.2c0 6.83 0 13.7 0.01 20.5 0 2.51 0 5.03-0.01 7.54 0 3.42 0 6.84 0.01 10.3 0 1 0 2-0.01 3.02 0.01 0.92 0.01 1.84 0.01 2.79v2.39c0.14 2.51 0.58 4.85 1.13 7.29l-4-2c-0.05-34.2-0.08-68.5-0.11-103v-12.1-2.43c-0.01-13-0.03-26.1-0.05-39.1-0.02-13.4-0.03-26.7-0.03-40.1 0-8.25-0.01-16.5-0.03-24.8-0.01-5.66-0.01-11.3-0.01-17 0-3.27 0-6.53-0.01-9.8-0.01-3.53-0.01-7.06 0-10.6-0.01-1.57-0.01-1.57-0.02-3.16 0-0.94 0.01-1.88 0.01-2.85v-2.47c0.61-4.85 4.22-4.21 8.24-4.23z" fill="#009EE0"/>
<path transform="translate(634,995)" d="m0 0-1 3c-3.95-0.42-7.51-0.85-11.3-2-4.11-1.11-8-1.46-12.2-1.75-2.45-0.25-2.45-0.25-5.45-1.25v4 1c-2.31 0.33-4.62 0.66-7 1v2c-2.48 0.31-4.96 0.63-7.44 0.94-0.73 0.09-1.46 0.18-2.22 0.28-3.82 0.48-7.63 0.92-11.5 1.28-3.59 0.46-6.51 1.23-9.88 2.5-3.86 1.42-6.88 2.24-11 2v2c-1.98 0.66-3.96 1.32-6 2l-3-3v4c-2.48-0.99-2.48-0.99-5-2 22.4-18.8 64.9-30 93-16z" fill="#009CDE"/>
<path transform="translate(1332 993)" d="m0 0h2.97c1.06 0.01 2.11 0.02 3.2 0.03 1.09 0 2.17 0.01 3.29 0.01 3.46 0.01 6.92 0.04 10.4 0.06 2.35 0.01 4.69 0.02 7.04 0.03 5.76 0.02 11.5 0.05 17.3 0.1 0.56 1.89 0.56 1.89 1 4-1.36 2.33-3.14 4-5 6-3.44-1.25-3.44-1.25-7-3-0.49-1.98-0.49-1.98-1-4h-17v2c-1.89 0.58-1.89 0.58-3.81 1.18-4.04 1.48-5.11 3.05-7.19 6.82-2.19 0.56-2.19 0.56-5 1-2.06 0.94-4.04 1.99-6.03 3.06-2.65 1.26-5.03 1.94-7.97 1.94-0.27 0.64-0.53 1.28-0.81 1.93-1.19 2.07-1.19 2.07-4.19 3.07l-3 2-1-3c1.12-1.84 1.12-1.84 2.88-3.94 3.87-4.73 7.5-9.62 11.1-14.6 3.06-3.81 5.11-4.75 9.85-4.73z" fill="#009CDE"/>
<path transform="translate(946,993)" d="m0 0c7.47-0.08 15-0.13 22.4-0.16 2.55-0.02 5.09-0.04 7.63-0.07 3.66-0.03 7.31-0.05 11-0.06 1.13-0.02 2.27-0.03 3.45-0.05h3.21c0.93-0.01 1.87-0.01 2.83-0.02 2.97 0.43 4.3 1.34 6.49 3.36 1.56 2.38 1.56 2.38 3 5 0.56 0.93 1.11 1.86 1.69 2.81 0.43 0.72 0.86 1.45 1.31 2.19-2.17-0.51-4-1-6-2v-2h-2l-1 3c-5.21-0.53-9.24-1.88-14-4-2.78-0.69-2.78-0.69-5-1v-3h-24c-0.43 8.5-0.43 8.5 3.44 14.4 0.72 0.91 1.44 1.82 2.18 2.76 0.79 0.94 1.57 1.89 2.38 2.86 0.85 1.05 1.69 2.1 2.54 3.14 2.13 2.64 4.29 5.26 6.46 7.86l-2 2c-0.7-0.89-1.4-1.79-2.12-2.71-0.96-1.22-1.92-2.44-2.88-3.67-0.5-0.63-1-1.27-1.52-1.93-2.88-3.67-5.79-7.32-8.73-10.9-10.8-13.4-10.8-13.4-10.8-17.8z" fill="#009BDD"/>
<path transform="translate(877,1046)" d="m0 0 4 1v2c0.64 0.25 1.28 0.49 1.94 0.75 2.06 1.25 2.06 1.25 2.81 3.37 0.12 0.93 0.12 0.93 0.25 1.88h2c6.83 11.2 13.5 22.4 13 36 0.62 0.08 1.24 0.16 1.88 0.25 2.12 0.75 2.12 0.75 3.21 2.38 2.71 7.06 3.17 18 0.91 25.4-1.47 2.32-3.06 4.01-5 6l-1 2-7-2c0.2-0.76 0.41-1.53 0.62-2.32 5.33-21.2 4.7-42.6-6.38-61.7-1.57-2.46-3.39-4.68-5.24-6.94v-2h-2c-1.39-1.96-2.73-3.96-4-6z" fill="#009BDD"/>
<path transform="translate(268,1158)" d="m0 0c1.51 0.49 1.51 0.49 3.06 0.99 6.56 1.62 13.3 1.28 20 1.24h4.44c3.1 0 6.21-0.01 9.31-0.02 3.91-0.02 7.81-0.02 11.7-0.02 14.9-0.01 29.7-0.03 44.6-0.93 4.48-0.26 8.47-0.23 12.9 0.74-22.1 14.8-78.6 4.77-104 4v-2h-2v-4z" fill="#009CDE"/>
<path transform="translate(1170,993)" d="m0 0c7.42-0.2 14.8-0.34 22.3-0.44 2.52-0.04 5.05-0.09 7.57-0.16 3.63-0.1 7.26-0.15 10.9-0.18 1.13-0.04 2.25-0.08 3.41-0.13 7.71 0 7.71 0 11.1 2.66 1.76 2.01 3.27 4.05 4.77 6.25 0.8 0.78 1.61 1.57 2.44 2.38 1.56 1.62 1.56 1.62 1.56 3.62-1.88-0.75-1.88-0.75-4-2-0.27-0.67-0.54-1.34-0.81-2.03-1.03-2.23-1.03-2.23-3.57-2.58-0.91-0.05-1.81-0.09-2.74-0.14-0.92-0.06-1.83-0.11-2.76-0.17-0.7-0.03-1.4-0.05-2.12-0.08v-2c-12.2-2.68-24.6-2.2-37-2-1.43 2.87-1.32 4.82-1 8 1.68 2.89 1.68 2.89 4.12 5.69 0.91 1.12 1.82 2.24 2.72 3.36 0.5 0.62 1 1.24 1.52 1.87 3.2 4.05 6.22 8.23 9.26 12.4 1.23 1.67 2.45 3.33 3.67 4.99 0.9 1.23 1.81 2.47 2.71 3.7l-2 2c-0.59-0.85-1.19-1.7-1.8-2.57-6.13-8.7-12.6-17.1-19.2-25.4-0.78-0.98-1.56-1.95-2.37-2.96-1.32-1.65-2.65-3.31-3.97-4.95-0.55-0.69-1.1-1.38-1.66-2.09-0.57-0.69-1.13-1.38-1.72-2.09-1.28-1.91-1.28-1.91-1.28-4.91z" fill="#009CDE"/>
<path transform="translate(1110 992)" d="m0 0h2.85c1.01 0.01 2.03 0.01 3.07 0.02h3.15c3.32 0.01 6.64 0.02 9.96 0.03 2.25 0.01 4.5 0.01 6.75 0.01 5.52 0.02 11 0.03 16.6 0.05 0.63 1.83 0.63 1.83 1 4-1.93 2.75-1.93 2.75-4 5l-3-2c-1.65-0.38-3.32-0.72-5-1l1-3c-0.99 0.33-1.98 0.66-3 1-2.13 0.09-4.27 0.11-6.41 0.1-1.26 0-2.51-0.01-3.8-0.01-1.31-0.01-2.62-0.02-3.97-0.02-1.34-0.01-2.67-0.01-4.01-0.02-3.27-0.01-6.54-0.03-9.81-0.05l1 4h-2c-0.18 0.6-0.37 1.2-0.56 1.82-2.16 3.28-4.79 3.83-8.44 5.18l-1-2-2-1v-3l-1-3c4.2-4.42 6.57-6.13 12.7-6.11z" fill="#009CDE"/>
<path transform="translate(664,436)" d="m0 0c0.99 0.33 1.98 0.66 3 1 2.14-0.39 2.14-0.39 4-1 0.84 2.27 1.67 4.54 2.5 6.81 0.24 0.65 0.48 1.29 0.72 1.95 1.05 2.89 1.78 5.14 1.78 8.24l-4 2c0.5 3.73 0.87 5.81 3 9 0.08 2.33 0.09 4.67 0 7-0.99-0.33-1.98-0.66-3-1-0.68-1.66-1.35-3.33-2-5l-3-2 2-2c-0.28-4.45-1.19-8.76-3.62-12.5-2.18-3.96-1.61-8.07-1.38-12.5z" fill="#009EE1"/>
<path transform="translate(1309,1107)" d="m0 0c4.94 3.44 8.77 7.95 12 13v3h2c1.45 1.74 2.81 3.54 4.12 5.38 0.73 0.99 1.45 1.99 2.2 3.02 1.68 2.6 1.68 2.6 1.68 4.6 0.99 0.33 1.98 0.66 3 1 1.81 2.24 3.48 4.46 5.12 6.81 0.69 0.95 0.69 0.95 1.38 1.91 3.38 4.77 3.38 4.77 4.01 7.43 0.16 0.61 0.32 1.22 0.49 1.85 0.99 0.49 0.99 0.49 2 1-2.76-0.36-3.84-0.83-5.78-2.89-0.57-0.78-1.14-1.56-1.72-2.36-0.6-0.81-1.2-1.62-1.82-2.45-0.56-0.76-1.11-1.52-1.68-2.3-2.55-3.56-2.55-3.56-6-6l1 4c-1.48-0.49-1.48-0.49-3-1v-3h-2l-2-5 2-1v-3h-2c-0.45-0.95-0.91-1.9-1.38-2.88-1.42-3.12-1.42-3.12-3.62-5.12v-3c-0.87-0.37-0.87-0.37-1.76-0.75-2.56-1.43-4.12-3-6.05-5.19-0.63-0.69-1.25-1.38-1.9-2.09-0.42-0.65-0.85-1.3-1.29-1.97l1-3z" fill="#009CDE"/>
<path transform="translate(648,1060)" d="m0 0c6.95 8.73 8.71 18.5 10 29.3 0.1 0.84 0.21 1.67 0.31 2.53 0.09 0.75 0.17 1.5 0.26 2.28 0.3 2.1 0.3 2.1 2.42 3.87 0.2 2.82 0.2 2.82 0.12 6.12-0.01 1.1-0.03 2.2-0.05 3.33-0.03 1.26-0.03 1.26-0.07 2.55-0.99 0.49-0.99 0.49-2 1l-2-1-1 2c-1.1-4.36-1.03-8.54-0.94-13 0.1-13.8-2.86-25.3-8.06-38l1-1z" fill="#009CDE"/>
<path transform="translate(402,1101)" d="m0 0c4.49 4.98 6.9 10.7 9 17 0.35 0.56 0.7 1.11 1.06 1.69 1.67 4.11 1.18 8.41 0.63 12.8-0.23 0.51-0.46 1.03-0.69 1.56-1.49 0.49-1.49 0.49-3 1l-2-1 1 3h-2v3l-2-1c0.33-1.18 0.66-2.35 1-3.56 2.11-9.58 2.29-19.5-2-28.4-0.39-0.99-0.78-1.98-1.19-3-0.27-0.66-0.53-1.32-0.81-2l1-1z" fill="#009CDE"/>
<path transform="translate(977,1035)" d="m0 0c4.25 1.52 5.7 4.25 8 8 1.92 3.04 3.67 5.68 6.25 8.19 4.12 4.21 7.34 9.03 10.8 13.8 3.44 4.72 6.98 9.23 10.9 13.6 1.1 1.45 1.1 1.45 1.1 3.45-4.15-1.55-6.44-4.58-9.12-7.94-0.45-0.54-0.89-1.07-1.34-1.63-5.54-6.78-5.54-6.78-5.54-10.4-0.59-0.24-1.17-0.48-1.77-0.73-2.69-1.53-3.98-3.19-5.83-5.66-0.98-1.31-0.98-1.31-1.99-2.65-0.67-0.92-1.34-1.83-2.03-2.77-0.69-0.91-1.37-1.81-2.07-2.74-3.02-4.06-5.59-7.65-7.31-12.4z" fill="#009CDE"/>
<path transform="translate(727,1107)" d="m0 0c2.27 3.41 2.65 6.31 3.25 10.2 2.94 17.2 11.6 33.2 20.8 47.8-1.49-0.49-1.49-0.49-3-1-0.69-2.06-0.69-2.06-1-4h-2c-9.52-15.8-18.8-33-19-52l1-1z" fill="#009CDF"/>
<path transform="translate(419,1064)" d="m0 0c4.93 0.49 7.8 1.87 11.8 4.81 0.94 0.69 1.89 1.38 2.86 2.08 2.26 1.99 3.32 3.34 4.39 6.11h-5v-2l-5-1c-1.16 2.95-1.16 2.95-1 6l-5-1-1-4h-2c1-2 1-2 3-4l1-2-2-1c0.99-0.33 1.98-0.66 3-1-2.48-0.99-2.48-0.99-5-2v-1z" fill="#009CDE"/>
<path transform="translate(256,977)" d="m0 0c2 1.06 2 1.06 4 3 0.94 5.98-1.08 9.98-4 15h-3l2-1c-0.5-0.47-0.99-0.95-1.5-1.44-2.2-3.76-2.24-7.3-1.5-11.6 2-2.56 2-2.56 4-4z" fill="#009CDE"/>
<path transform="translate(586,1160)" d="m0 0c2.41 0.08 4.83 0.11 7.25 0.1 0.65 0 1.31-0.01 1.98-0.01 2.07 0 4.14-0.01 6.21-0.03 1.41 0 2.82-0.01 4.24-0.01 3.44-0.01 6.88-0.03 10.3-0.05-8.99 5.99-24.1 5.38-34.4 3.32-2.27-0.68-4.44-1.4-6.62-2.32 3.83-2.6 6.58-1.66 11-1z" fill="#009CDE"/>
<path transform="translate(1057,1139)" d="m0 0c0.25 0.62 0.49 1.24 0.75 1.88 1.04 2.24 1.04 2.24 3.05 2.9 3.08 1.71 4.53 4.01 6.58 6.84 0.79 1.1 1.59 2.19 2.38 3.28 0.74 1.02 1.48 2.05 2.24 3.1 1.06 1.42 2.12 2.84 3.19 4.25 0.46 0.62 0.92 1.23 1.39 1.87 1.03 1.36 2.08 2.71 3.15 4.04 0.57 0.71 1.13 1.42 1.71 2.15 0.51 0.64 1.03 1.27 1.56 1.93 0.33 0.58 0.66 1.16 1 1.76l-1 3v-2c-1.48-0.49-1.48-0.49-3-1-1.3-1.39-1.3-1.39-2.6-3.18-0.49-0.65-0.97-1.31-1.47-1.99-0.52-0.71-1.03-1.41-1.55-2.14-1.08-1.46-2.15-2.92-3.23-4.39-0.53-0.72-1.06-1.45-1.61-2.2-2.85-3.89-5.78-7.71-8.7-11.6-1.77-2.45-3.33-4.94-4.84-7.55l1-1z" fill="#009CDE"/>
<path transform="translate(265,975)" d="m0 0c2.47 3.71 3.13 6.12 3.02 10.5-0.02 0.9-0.04 1.8-0.06 2.73-0.03 0.97-0.05 1.94-0.08 2.94-0.02 0.99-0.05 1.99-0.07 3.01-0.08 3.18-0.16 6.36-0.25 9.54-0.05 2.15-0.1 4.31-0.16 6.46-0.12 5.28-0.26 10.6-0.4 15.8h-1c-0.02-0.96-0.04-1.92-0.06-2.91-0.08-3.55-0.16-7.1-0.26-10.6-0.04-1.54-0.07-3.08-0.1-4.62-0.05-2.21-0.11-4.42-0.17-6.62-0.01-0.69-0.02-1.38-0.03-2.09-0.03-4-0.03-4-2.38-7.11-0.27-2.69-0.09-5.29 0-8h2c-0.19-0.93-0.37-1.86-0.56-2.81-0.44-3.19-0.44-3.19 0.56-6.19z" fill="#009CDE"/>
<path transform="translate(1281,1139)" d="m0 0c4.26 1.52 5.59 4.31 8 8 2.37 3.15 4.77 6.27 7.17 9.39 1.83 2.61 1.83 2.61 1.83 4.61 0.99 0.33 1.98 0.66 3 1 2.25 2.88 2.25 2.88 4 6l-1 3c-6.05-6.97-11.7-14.2-17.1-21.6-0.59-0.8-1.17-1.59-1.76-2.41-0.54-0.75-1.08-1.49-1.63-2.26-0.48-0.67-0.96-1.33-1.46-2.02-1.03-1.69-1.03-1.69-1.03-3.69z" fill="#009CDE"/>
<path transform="translate(253,999)" d="m0 0c1.88 0.62 1.88 0.62 4 2 2.17 5.1 2 9.54 2 15l-4 1c-2.21-3.95-4.41-8.4-3.68-13 0.49-1.69 1.07-3.34 1.68-4.99z" fill="#009CDE"/>
<path transform="translate(1211,1048)" d="m0 0c3.97 1.52 5.68 3.9 8.12 7.31 0.79 1.08 1.57 2.16 2.36 3.24 0.61 0.84 0.61 0.84 1.24 1.7 2.6 3.54 5.31 7 8.01 10.5 1.84 2.39 3.6 4.77 5.27 7.28l-1 3c-5.95-7.5-11.8-15-17.6-22.7-0.79-1.02-0.79-1.02-1.58-2.07-0.48-0.64-0.97-1.28-1.46-1.94-0.65-0.85-0.65-0.85-1.3-1.71-1.04-1.59-1.04-1.59-2.04-4.59z" fill="#009CDE"/>
<path transform="translate(827 1160)" d="m0 0c1.74 0.08 1.74 0.08 3.52 0.16 1.26 0.05 2.52 0.1 3.81 0.15 1.33 0.07 2.67 0.13 4 0.2 1.34 0.06 2.68 0.12 4.02 0.17 3.28 0.14 6.57 0.3 9.85 0.46-1 2-1 2-2.58 2.61-3.37 0.54-6.7 0.58-10.1 0.57h-2.16c-5.3-0.05-10-0.72-15.2-2.18 2-2 2-2 4.8-2.14z" fill="#009CDE"/>
<path transform="translate(668,448)" d="m0 0c0.1 0.64 0.21 1.28 0.31 1.94 0.23 0.68 0.46 1.36 0.69 2.06 0.99 0.33 1.98 0.66 3 1l-1 3c0.76 1.86 0.76 1.86 1.94 3.75 2.17 4.03 2.44 6.72 2.06 11.2-0.99-0.33-1.98-0.66-3-1-0.68-1.66-1.35-3.33-2-5l-3-2 2-2c-0.24-2.36-0.24-2.36-0.94-4.94-1.17-4.74-1.17-4.74-0.06-8.06z" fill="#00A2E5"/>
<path transform="translate(1305,1171)" d="m0 0c3.62 1.21 4.15 2.3 6.19 5.44 0.53 0.8 1.06 1.6 1.6 2.43 1.21 2.13 1.21 2.13 1.21 4.13h2c1.8 2.26 3.47 4.51 5.12 6.88 0.47 0.65 0.94 1.3 1.42 1.97 3.46 4.89 3.46 4.89 3.46 7.15-3.25-1.08-3.69-1.56-5.59-4.2-0.48-0.65-0.95-1.31-1.44-1.98-0.48-0.68-0.97-1.36-1.47-2.07-0.49-0.67-0.97-1.34-1.47-2.03-2.52-3.49-4.84-7.02-7.03-10.7-0.72-0.89-1.44-1.77-2.19-2.69-1.81-2.31-1.81-2.31-1.81-4.31z" fill="#009CDE"/>
<path transform="translate(904,1011)" d="m0 0c3.99 1.37 6.88 3.15 10 6v2c0.99 0.33 1.98 0.66 3 1v2h2v2h2l2 4h-3c-1.28-1.47-2.55-2.94-3.72-4.49-1.39-1.78-1.39-1.78-4.28-3.51-1.69-1.3-3.36-2.63-5-4v-1l-4-1 1-3z" fill="#009CDE"/>
<path transform="translate(1085,1175)" d="m0 0c1.34 1.66 2.67 3.33 4 5 0.78 0.96 0.78 0.96 1.58 1.95 4.59 5.75 8.57 11.8 12.4 18-4.42-1.52-6.43-4.99-8.94-8.69-0.41-0.6-0.83-1.2-1.26-1.82-0.84-1.21-1.68-2.42-2.51-3.63-2.06-2.98-4.18-5.92-6.29-8.86l1-2z" fill="#009CDE"/>
<path transform="translate(1237,1080)" d="m0 0c1.35 1.66 2.68 3.33 4 5 0.53 0.64 1.06 1.28 1.6 1.94 0.55 0.68 1.09 1.36 1.65 2.06 0.52 0.64 1.04 1.28 1.58 1.94 1.43 2.51 1.39 4.21 1.17 7.06h-2c-0.31-0.66-0.63-1.33-0.95-2.01-1.92-3.95-3.66-7.5-6.43-10.9-0.8-1.02-0.8-1.02-1.62-2.06l1-3z" fill="#009CDE"/>
<path transform="translate(1026,1029)" d="m0 0c4.13 3.9 7.48 8.1 10.8 12.7 0.5 0.67 1.01 1.35 1.52 2.05 3.67 5.01 3.67 5.01 3.67 7.26h-2c-3-4.38-3-4.38-3-7-0.99-0.33-1.98-0.66-3-1l-1-3-3-3v-2h-2l-2-6z" fill="#009CDE"/>
<path transform="translate(671,500)" d="m0 0c2.32 3.48 2.24 4.69 1.5 8.69-0.16 0.76-0.33 1.52-0.5 2.31h-2v2l-2-1 1-6h-2v-2h2v-2h2v-2z" fill="#009CDE"/>
<path transform="translate(871 1153)" d="m0 0c0.9 0.31 0.9 0.31 1.81 0.62-2.03 1.16-4.08 2.3-6.12 3.44-1.71 0.96-1.71 0.96-3.45 1.94-3.26 1.54-5.87 2.24-9.43 2.62l1-3c2.4-1.09 2.4-1.09 5.38-2.06 3.46-1.13 7.43-4.14 10.8-3.56z" fill="#009EE0"/>
<path transform="translate(668,1013)" d="m0 0c6.92 4.46 6.92 4.46 9 7v2h2v2h2l1 3c-3 0-3 0-5-1.69-2-2.31-2-2.31-3.38-4.87-2.06-3.1-4.24-4.01-7.62-5.44l2-2z" fill="#009CDE"/>
<path transform="translate(218,1038)" d="m0 0h1v27h-1c-0.61-6.03-1-11.9-1-18-0.21-1.07-0.41-2.14-0.62-3.25-0.38-2.75-0.38-2.75 1.62-5.75z" fill="#00A2E5"/>
<path transform="translate(1082,1104)" d="m0 0c4.1 1.51 5.54 3.96 7.75 7.62 0.61 1.01 1.23 2.01 1.86 3.04 0.46 0.77 0.92 1.55 1.39 2.34l-4-1c-0.12-0.64-0.25-1.28-0.38-1.94-0.2-0.68-0.41-1.36-0.62-2.06l-2-1c-4-5.65-4-5.65-4-7z" fill="#009CDE"/>
<path transform="translate(534,461)" d="m0 0c2.74 2.37 3.93 4.55 5 8 0.12 2.81 0.12 2.81 0 5h-2l-4-12 1-1z" fill="#0099DB"/>
<path transform="translate(779,1008)" d="m0 0c-1.26 1.03-2.53 2.05-3.81 3.06-1.06 0.86-1.06 0.86-2.15 1.73-0.67 0.4-1.35 0.8-2.04 1.21-0.99-0.33-1.98-0.66-3-1 6.26-6.42 6.26-6.42 11-5z" fill="#009EE0"/>
<path transform="translate(628,1156)" d="m0 0c-5.58 3.33-9.5 4.46-16 4 2.59-1.41 5.27-2.58 8-3.69 0.66-0.27 1.32-0.54 2-0.82 2.35-0.57 3.73-0.24 6 0.51z" fill="#009FE1"/>
<path transform="translate(384,1157)" d="m0 0-1 2c-3.29 1.1-5.74 1.1-9.19 1.06-1.63-0.01-1.63-0.01-3.29-0.02-0.83-0.02-1.66-0.03-2.52-0.04v-1c1.73-0.34 3.46-0.67 5.19-1 0.96-0.19 1.92-0.37 2.92-0.56 2.68-0.41 5.18-0.52 7.89-0.44z" fill="#009FE1"/>
</svg>
