<svg version="1.1" id="Layer_1" xmlns="http://www.w3.org/2000/svg" xmlns:xlink="http://www.w3.org/1999/xlink" x="0px" y="0px"
	 width="100%" viewBox="0 0 87 133" enable-background="new 0 0 87 133" xml:space="preserve">
<path fill="none" opacity="1.000000" stroke="#000000" stroke-linecap="round" stroke-linejoin="round" stroke-width="3.000000"
	d="
M24.500000,58.000000 
	C31.393881,66.012123 40.841347,69.386261 50.476559,72.570923 
	C54.371025,73.858147 57.723873,74.865135 61.566006,72.091431 
	C65.859276,68.992043 72.337425,72.473297 72.419022,78.001198 
	C72.650215,93.664444 72.610718,109.334778 72.406921,124.998787 
	C72.365990,128.145370 70.969734,131.175797 66.999184,131.489716 
	C62.883842,131.815063 60.385880,129.813049 58.957832,126.015862 
	C58.150864,123.870110 57.991753,121.723915 57.994728,119.499992 
	C58.007221,110.166672 58.010326,100.833313 57.990475,91.500023 
	C57.986908,89.823601 58.333267,88.100006 56.871197,86.000000 
	C47.005287,86.000000 36.496357,85.782051 26.002447,86.084793 
	C20.062120,86.256172 17.924446,85.064026 18.043709,79.500938 
	C18.304533,67.334465 17.030006,55.141472 18.530350,43.003750 
	C19.202475,37.566280 23.926535,33.238438 28.500000,33.500004 
	C33.958103,33.812160 38.602760,38.802246 38.474899,44.499435 
	C38.267281,53.750023 38.688545,52.384571 50.015053,57.466454 
	C52.747082,58.692234 55.781181,59.260998 58.475182,60.551800 
	C63.455524,62.938072 64.246071,64.772324 63.500000,70.500000 
"/>
<path fill="none" opacity="1.000000" stroke="#000000" stroke-linecap="round" stroke-linejoin="round" stroke-width="4.000000"
	d="
M16.500000,55.000000 
	C7.872861,56.520836 5.499998,59.325130 5.500000,68.000000 
	C5.500000,74.500000 5.460952,81.000305 5.511321,87.499916 
	C5.558765,93.622147 8.470240,96.497414 14.500000,96.498894 
	C28.666666,96.502365 42.833332,96.500000 57.000000,96.500000 
"/>
<path fill="none" opacity="1.000000" stroke="#000000" stroke-linecap="round" stroke-linejoin="round" stroke-width="3.000000"
	d="
M30.000000,97.500000 
	C30.000000,108.666664 30.000000,119.833336 30.000000,131.000000 
"/>
<path fill="none" opacity="1.000000" stroke="#000000" stroke-linecap="round" stroke-linejoin="round" stroke-width="3.000000"
	d="
M70.000000,11.500000 
	C70.217499,15.831378 69.499451,20.198738 70.499680,24.500011 
	C73.166664,24.500000 75.833336,24.500000 78.500000,24.500000 
"/>
<path fill="none" opacity="1.000000" stroke="#000000" stroke-linecap="round" stroke-linejoin="round" stroke-width="4.000000"
	d="
M45.500000,131.500000 
	C35.166668,131.500000 24.833334,131.500000 14.500000,131.500000 
"/>
<path fill="none" opacity="1.000000" stroke="#000000" stroke-linecap="round" stroke-linejoin="round" stroke-width="3.000000"
	d="
M26.000000,3.500000 
	C20.292109,6.211731 15.922966,9.766517 16.458071,17.003101 
	C16.857000,22.398075 20.739050,27.549929 26.010284,28.439024 
	C30.262230,29.156195 36.346127,28.066647 39.539997,21.519512 
	C41.459183,17.585360 40.628075,11.397365 37.520004,7.981795 
	C34.527142,4.692827 31.035551,2.876059 26.500000,3.500000 
"/>
<path fill="none" opacity="1.000000" stroke="#000000" stroke-linecap="round" stroke-linejoin="round" stroke-width="3.000000"
	d="
M67.000000,8.500000 
	C61.176304,11.072627 56.156261,14.032416 55.392937,21.489040 
	C54.483738,30.370598 60.183811,38.184097 69.000229,38.997524 
	C77.464020,39.778419 84.628403,33.582512 85.447418,25.494675 
	C86.424957,15.841497 80.032921,8.972624 70.999580,8.508196 
	C69.835991,8.448372 68.666664,8.500000 67.500000,8.500000 
"/>
</svg>